<?xml version="1.0" standalone="no"?>
<!DOCTYPE svg PUBLIC "-//W3C//DTD SVG 1.1//EN" "http://www.w3.org/Graphics/SVG/1.1/DTD/svg11.dtd" >
<svg xmlns="http://www.w3.org/2000/svg" xmlns:xlink="http://www.w3.org/1999/xlink" version="1.1">
<metadata></metadata>
<defs>
<font id="raundregular" horiz-adv-x="995" >
<font-face units-per-em="2048" ascent="1536" descent="-512" />
<missing-glyph horiz-adv-x="608" />
<glyph horiz-adv-x="0" />
<glyph horiz-adv-x="682" />
<glyph horiz-adv-x="700" d="M49 489q0 84 96 84h410q96 0 96 -84q0 -86 -96 -86h-410q-96 0 -96 86z" />
<glyph horiz-adv-x="700" d="M49 489q0 84 96 84h410q96 0 96 -84q0 -86 -96 -86h-410q-96 0 -96 86z" />
<glyph unicode="&#xd;" horiz-adv-x="608" />
<glyph unicode=" "  horiz-adv-x="608" />
<glyph unicode="&#x09;" horiz-adv-x="608" />
<glyph unicode="&#xa0;" horiz-adv-x="608" />
<glyph unicode="!" horiz-adv-x="423" d="M117 96q0 47 27 72t67 27q40 0 69 -25.5t29 -73.5q0 -41 -27.5 -68.5t-66.5 -27.5q-41 0 -69.5 27.5t-28.5 68.5zM129 459v817q0 42 21 66t63 24q82 0 82 -90v-817q0 -45 -19.5 -67.5t-62.5 -22.5q-84 0 -84 90z" />
<glyph unicode="&#x22;" horiz-adv-x="555" d="M70 1026v277q0 73 82 73q37 0 57 -22t20 -60v-272q0 -37 -20.5 -58.5t-58.5 -21.5q-48 0 -64 23t-16 61zM326 1026v279q0 11 2.5 21t10.5 22.5t26 20t45 7.5q35 0 56 -22.5t21 -59.5v-272q0 -36 -21 -58t-58 -22q-82 0 -82 84z" />
<glyph unicode="#" d="M51 514q0 34 16.5 53t41.5 19h108l55 202h-98q-25 0 -41 17t-16 51t15 51t40 17h141l99 344q12 39 59 39q38 0 57 -17.5t19 -40.5q0 -6 -4 -22l-86 -303h207l96 333q9 39 59 39q38 0 56 -17.5t18 -41.5q0 -14 -2 -16l-84 -297h84q23 0 38 -17.5t15 -46.5q0 -34 -15.5 -53 t-37.5 -19h-125l-55 -202h110q24 0 40 -18.5t16 -47.5q0 -33 -16 -51t-38 -18h-153l-113 -388q-9 -34 -57 -34q-39 0 -57.5 16t-18.5 41q0 5 4 25l98 340h-207l-106 -373q-12 -37 -63 -37q-35 0 -52.5 17.5t-17.5 39.5q0 15 2 19l96 334h-67q-25 0 -42.5 17t-17.5 46z M360 586h207l56 202h-207z" />
<glyph unicode="$" d="M61 1012q0 158 94.5 248t270.5 90v98q0 53 61 53q68 0 68 -51v-100h242q21 0 42 -22.5t21 -59.5q0 -44 -19.5 -62t-43.5 -18h-242v-432q20 -10 64 -30t67 -31t61.5 -32.5t59.5 -39t48 -45.5t41 -56.5t24 -67.5t10 -83q0 -152 -92.5 -257.5t-247.5 -105.5h-35v-94 q0 -22 -17.5 -36.5t-50.5 -14.5q-32 0 -46.5 15t-14.5 36v94h-229q-97 0 -97 82q0 80 97 80h229v463q-149 63 -204 98q-138 87 -157 227q-4 26 -4 54zM227 1014q0 -35 7 -59t27.5 -43.5t37 -30t59 -33t68.5 -37.5v377h-16q-79 0 -131 -43t-52 -131zM555 170h35 q70 0 119 49.5t49 138.5q0 30 -9.5 55t-20 41t-39.5 37.5t-46 32t-62 36.5q-17 10 -26 15v-405z" />
<glyph unicode="%" horiz-adv-x="1597" d="M94 799v313q0 122 73.5 189t182.5 67h35q116 0 184 -65t68 -191v-313q0 -123 -71 -189.5t-181 -66.5h-35q-113 0 -184.5 66.5t-71.5 189.5zM233 809q0 -67 31.5 -104t93.5 -37h17q55 0 89 34.5t34 88.5v311q0 139 -123 139h-17q-94 0 -118 -86q-7 -31 -7 -53v-293zM401 6 q0 18 9 33l618 1358q19 37 59 37q31 0 53.5 -18t22.5 -46q0 -14 -6 -29l-616 -1355q-21 -47 -62 -47q-34 0 -56 20t-22 47zM956 254v313q0 123 73.5 189.5t182.5 66.5h35q116 0 184 -65t68 -191v-313q0 -122 -71 -188t-181 -66h-35q-114 0 -185 65.5t-71 188.5zM1096 264 q0 -67 31.5 -104t93.5 -37h16q55 0 89 34.5t34 88.5v311q0 64 -30 101.5t-93 37.5h-16q-95 0 -119 -86q-6 -24 -6 -53v-293z" />
<glyph unicode="&#x26;" horiz-adv-x="1271" d="M125 408v405q0 98 29.5 177.5t79.5 129t112 75.5t129 26h324q80 0 80 -86q0 -80 -80 -80h-271q-114 0 -175.5 -60t-61.5 -176v-420q0 -107 51 -172t145 -65h66q128 0 194 79t66 195v180h-215q-31 0 -49.5 2t-38.5 9.5t-29.5 24.5t-9.5 44q0 24 8 41t18 25t31 12.5t34.5 5 t39.5 0.5h377q45 0 110 32t76 32q31 0 58.5 -27.5t27.5 -64.5q0 -38 -46.5 -71t-104 -49t-101.5 -16h-20v-172q0 -205 -121 -324.5t-295 -119.5h-88q-160 0 -255 104t-95 304z" />
<glyph unicode="'" horiz-adv-x="299" d="M70 1026v277q0 73 82 73q37 0 57 -22t20 -60v-272q0 -37 -20.5 -58.5t-58.5 -21.5q-48 0 -64 23t-16 61z" />
<glyph unicode="(" horiz-adv-x="512" d="M70 643q0 227 89.5 467t200.5 373q27 30 56 30q32 0 52.5 -22.5t20.5 -44.5q0 -21 -14 -43q-111 -168 -171 -364t-60 -396q0 -199 63 -397t158 -332q14 -20 14 -41q0 -25 -27 -48.5t-51 -23.5q-27 0 -49 25q-117 152 -199.5 374t-82.5 443z" />
<glyph unicode=")" horiz-adv-x="512" d="M66 1446q0 21 20.5 44t52.5 23q30 0 54 -30q111 -133 200.5 -373t89.5 -467q0 -221 -82.5 -443t-199.5 -374q-22 -25 -47 -25t-51.5 22t-26.5 50q0 21 14 41q93 138 157 335.5t64 393.5q0 200 -60 396t-171 364q-14 25 -14 43z" />
<glyph unicode="*" horiz-adv-x="823" d="M35 1151q0 36 21.5 56t47.5 20q14 0 23 -6l225 -111l-18 258q0 24 19.5 40.5t49.5 18.5q30 0 50 -20t20 -41q-6 -97 -10 -256l227 123q12 6 23 6q24 0 45.5 -24.5t21.5 -53.5q0 -19 -9.5 -35.5t-22.5 -21.5l-252 -103l168 -204q12 -15 12 -33q0 -25 -22 -49.5t-50 -24.5 q-36 0 -55 25l-146 217l-137 -215q-16 -25 -45 -25q-32 0 -55 23t-23 55q0 17 9 29l161 202l-243 95q-35 12 -35 55z" />
<glyph unicode="+" d="M61 672q0 80 80 80h277v278q0 40 17.5 59t60.5 19q44 0 63 -18.5t19 -59.5v-278h274q82 0 82 -80q0 -78 -82 -78h-274v-277q0 -79 -82 -79q-78 0 -78 79v277h-277q-80 0 -80 78z" />
<glyph unicode="," horiz-adv-x="317" d="M16 -162q0 3 1 9.5t1 9.5l66 284q6 30 32 50t62 20q47 0 76 -28.5t29 -65.5q0 -13 -7 -27l-114 -274q-29 -47 -70 -47q-39 0 -57.5 21t-18.5 48z" />
<glyph unicode="-" horiz-adv-x="700" d="M49 489q0 84 96 84h410q96 0 96 -84q0 -86 -96 -86h-410q-96 0 -96 86z" />
<glyph unicode="." horiz-adv-x="354" d="M68 102q0 49 30.5 78t73.5 29q45 0 77 -28t32 -79q0 -43 -30.5 -74.5t-74.5 -31.5t-76 31.5t-32 74.5z" />
<glyph unicode="/" horiz-adv-x="960" d="M41 -14q0 21 8 34l703 1399q20 35 63 35q37 0 62.5 -23t25.5 -49q0 -17 -8 -30l-705 -1403q-21 -41 -61 -41q-34 0 -61 22t-27 56z" />
<glyph unicode="0" d="M100 408v550q0 99 30 178.5t82 129t119.5 76t145.5 26.5h53q170 0 270.5 -105.5t100.5 -304.5v-550q0 -99 -29 -178t-80.5 -128.5t-118 -75.5t-143.5 -26h-53q-166 0 -271.5 106t-105.5 302zM266 399q0 -109 60 -173t163 -64h27q98 0 159.5 65.5t61.5 171.5v570 q0 107 -59 171t-162 64h-27q-103 0 -163 -64t-60 -171v-570z" />
<glyph unicode="1" d="M176 1085q0 35 27 56l262 200q39 32 84 29q46 0 65 -19t19 -71v-1221q0 -28 -19.5 -48.5t-62.5 -20.5q-82 0 -82 71v1076l-164 -125q-24 -17 -47 -17q-31 0 -56.5 25.5t-25.5 64.5z" />
<glyph unicode="2" d="M70 76v198q0 140 54.5 227.5t197.5 160.5l282 147q71 36 110.5 96t39.5 127q0 81 -51.5 124.5t-122.5 43.5h-373q-72 0 -72 84q0 82 72 82h371q163 0 251.5 -87.5t88.5 -236.5q0 -62 -15.5 -115.5t-39.5 -92t-63 -74t-75.5 -59.5t-87.5 -52l-240 -125 q-89 -46 -126.5 -103t-37.5 -138v-115h605q71 0 71 -84t-71 -84h-680q-45 0 -66.5 21.5t-21.5 54.5z" />
<glyph unicode="3" d="M70 84q0 80 67 80h346q103 0 163.5 67.5t60.5 174.5v38q0 105 -58.5 164.5t-167.5 59.5h-205q-26 0 -46.5 21.5t-20.5 62.5q0 42 19.5 59.5t45.5 17.5h205q89 0 151 48t62 145q0 94 -56 138t-151 44h-319q-28 0 -48 17.5t-20 60.5q0 42 22 64t46 22h344q48 0 93 -8.5 t92.5 -32.5t82.5 -61t57.5 -99.5t22.5 -142.5q0 -94 -44 -167t-114 -103q170 -76 170 -316v-24q0 -195 -106.5 -304.5t-267.5 -109.5h-359q-24 0 -45.5 22t-21.5 62z" />
<glyph unicode="4" d="M33 348q0 34 20 78l375 893q21 55 72 55q35 0 62.5 -19.5t27.5 -54.5q0 -14 -6 -32l-355 -838h340v262q0 32 20 52t62 20q41 0 62.5 -22.5t21.5 -49.5v-262h166q26 0 48 -22t22 -60t-18 -62t-52 -24h-166v-209q0 -26 -21.5 -45.5t-62.5 -19.5t-61.5 19.5t-20.5 45.5v209 h-442q-49 0 -71.5 19t-22.5 67z" />
<glyph unicode="5" d="M98 84q0 42 21.5 61t46.5 19h362q101 0 150 61.5t49 171.5v60q0 106 -49 162.5t-146 56.5h-344q-48 0 -69 29t-21 63v506q0 39 20.5 66.5t69.5 27.5h607q67 0 67 -86q0 -42 -21.5 -60t-45.5 -18h-535v-364h283q160 0 256 -97.5t96 -293.5v-43q0 -197 -97 -301.5 t-255 -104.5h-377q-22 0 -45 22t-23 62z" />
<glyph unicode="6" d="M98 348v613q0 106 32.5 188t85 128t112 68.5t121.5 22.5h299q75 0 75 -84q0 -78 -78 -78h-262q-102 0 -161.5 -60t-59.5 -179v-138h301q160 0 256 -97.5t96 -293.5v-32q0 -197 -96.5 -300.5t-255.5 -103.5h-147q-91 0 -156 31t-99 84t-48.5 109.5t-14.5 121.5zM262 346 q0 -32 7.5 -61t25 -59t55.5 -48t92 -18h103q100 0 153.5 63.5t53.5 171.5v51q0 106 -51.5 163t-149.5 57h-289v-320z" />
<glyph unicode="7" d="M84 1284q0 43 22 63.5t50 20.5h635q83 0 83 -78q0 -23 -16 -69l-485 -1180q-24 -53 -78 -53q-40 0 -64 21.5t-24 43.5q0 14 6 29l467 1120h-524q-72 0 -72 82z" />
<glyph unicode="8" d="M94 406v28q0 115 40.5 196.5t113.5 123.5q-135 66 -135 256q0 167 100.5 264.5t257.5 97.5h55q157 0 258 -96t101 -264q0 -82 -35.5 -151t-101.5 -103q157 -81 157 -324v-28q0 -197 -103 -301.5t-265 -104.5h-78q-160 0 -262.5 104.5t-102.5 301.5zM258 399 q0 -108 56 -174.5t157 -66.5h51q102 0 160.5 66.5t58.5 174.5v39q0 108 -54 175t-155 67h-65q-101 0 -155 -67t-54 -175v-39zM272 1014q0 -83 47 -136t132 -53h92q84 0 133 55t49 134q0 87 -54.5 145t-154.5 58h-33q-101 0 -156 -56.5t-55 -146.5z" />
<glyph unicode="9" d="M86 930v33q0 199 95.5 302t254.5 103h148q73 0 130 -21.5t91.5 -55.5t56.5 -81t30.5 -93t8.5 -97v-612q0 -85 -21.5 -155t-56.5 -116t-81.5 -78t-94 -45.5t-96.5 -13.5h-299q-76 0 -76 84q0 80 78 80h262q102 0 161.5 59t59.5 178v138h-301q-160 0 -255 97t-95 294z M248 922q0 -105 51.5 -162.5t149.5 -57.5h288v320q0 32 -7.5 61t-25 59t-55.5 48t-92 18h-102q-100 0 -153.5 -63.5t-53.5 -171.5v-51z" />
<glyph unicode=":" horiz-adv-x="350" d="M68 104q0 49 30.5 78t73.5 29q45 0 77 -28t32 -79q0 -43 -30.5 -74.5t-74.5 -31.5t-76 31.5t-32 74.5zM68 600q0 49 30.5 78t73.5 29q45 0 77 -28t32 -79q0 -42 -30.5 -73t-74.5 -31t-76 30.5t-32 73.5z" />
<glyph unicode=";" horiz-adv-x="385" d="M41 -164q0 17 2 21l66 284q6 30 31.5 50t60.5 20q47 0 75.5 -28t28.5 -66q0 -15 -6 -27l-115 -274q-8 -19 -26.5 -33t-42.5 -14q-38 0 -56 20t-18 47zM98 600q0 49 31 78t74 29q44 0 75 -28t31 -79q0 -42 -29.5 -73t-72.5 -31q-47 0 -78 30.5t-31 73.5z" />
<glyph unicode="&#x3c;" d="M12 647q0 35 13 48.5t59 35.5l786 359q15 6 31 6q31 0 53.5 -23.5t22.5 -60.5q0 -46 -53 -70q-24 -11 -170 -78.5t-282.5 -129.5t-172.5 -77v-4l625 -231q53 -21 53 -68q0 -39 -23 -63.5t-51 -24.5q-16 0 -31 6q-132 48 -393 145.5t-393 145.5q-44 14 -59 29.5t-15 54.5z " />
<glyph unicode="=" d="M61 512q0 84 84 84h701q86 0 86 -84q0 -44 -19.5 -62t-66.5 -18h-701q-45 0 -64.5 18t-19.5 62zM61 856q0 42 19.5 60t64.5 18h701q47 0 66.5 -17.5t19.5 -60.5q0 -84 -86 -84h-701q-84 0 -84 84z" />
<glyph unicode="&#x3e;" d="M14 354q0 46 54 68l624 231v4l-624 285q-54 25 -54 68q0 36 25 61t53 25q14 0 29 -6q153 -71 432.5 -198t353.5 -161q46 -22 59 -35.5t13 -48.5q0 -39 -15 -54t-57 -30l-788 -291q-15 -6 -31 -6q-27 0 -50.5 24.5t-23.5 63.5z" />
<glyph unicode="?" horiz-adv-x="892" d="M92 1233q0 35 33 55q43 25 129.5 51.5t177.5 26.5q164 0 255 -72t91 -215q0 -36 -20.5 -90t-42.5 -84l-140 -174q-49 -59 -49 -133v-158q0 -29 -22 -50t-66 -21q-30 0 -55 17t-25 54v205q0 63 48 123l157 209q37 46 37 98q0 57 -48 93t-132 36q-56 0 -111 -15t-92 -30.5 t-51 -15.5q-29 0 -51.5 27t-22.5 63zM342 96q0 47 28 73t68 26t68.5 -25.5t28.5 -73.5q0 -41 -28 -68.5t-69 -27.5t-68.5 27.5t-27.5 68.5z" />
<glyph unicode="@" horiz-adv-x="1853" d="M113 592q0 185 59 347.5t165.5 282.5t265.5 189.5t349 69.5q220 0 399 -94.5t283.5 -269t104.5 -396.5q0 -127 -28 -224t-77.5 -154t-111 -85.5t-133.5 -28.5q-107 0 -177.5 55t-70.5 165v161h-396q-43 0 -72.5 -28.5t-29.5 -71.5v-8q0 -43 26 -76t76 -33h265 q24 0 43.5 -19t19.5 -57q0 -39 -19.5 -57t-43.5 -18h-283q-105 0 -171.5 69.5t-66.5 188.5v14q0 100 67 175t189 75h394v16q0 72 -45 113t-123 41h-283q-25 0 -44 17.5t-19 56.5q0 38 19.5 57.5t43.5 19.5h279q160 0 241.5 -83t81.5 -238v-307q0 -95 99 -95q106 0 157 99.5 t51 259.5q0 180 -85 321.5t-234 219t-336 77.5q-142 0 -266.5 -51t-217.5 -145t-146.5 -235.5t-53.5 -313.5q0 -200 80 -352.5t231 -238t353 -85.5q200 0 329 74q12 6 27 6q30 0 50 -22t20 -50q0 -37 -37 -55q-167 -90 -406 -90q-233 0 -414 103t-279.5 287.5t-98.5 420.5z " />
<glyph unicode="A" horiz-adv-x="1120" d="M35 68q0 18 4 30l401 1190q14 44 32.5 61t57.5 17h60q39 0 57.5 -17t32.5 -61l401 -1190q6 -15 6 -30q0 -47 -53 -68q-21 -6 -41 -6q-58 0 -78 51l-92 266h-530l-90 -266q-18 -53 -72 -53q-19 0 -37 6q-59 14 -59 70zM350 473h420l-209 651h-4z" />
<glyph unicode="B" horiz-adv-x="1183" d="M123 86v1198q0 82 84 82h510q136 0 229.5 -94.5t93.5 -253.5q0 -78 -34.5 -155.5t-104.5 -121.5q89 -51 135.5 -129t46.5 -204q0 -98 -31.5 -177t-84 -128.5t-118 -76t-136.5 -26.5h-506q-84 0 -84 86zM291 164h424q86 0 144.5 62t58.5 184q0 56 -23.5 110.5t-75.5 94.5 t-121 40h-407v-491zM291 817h418q68 0 114.5 54.5t46.5 144.5q0 87 -49.5 136.5t-132.5 49.5h-397v-385z" />
<glyph unicode="C" horiz-adv-x="1026" d="M102 406v552q0 99 30 178t80.5 128.5t114.5 75.5t136 26h428q78 0 78 -82t-78 -82h-412q-98 0 -154.5 -65t-56.5 -172v-566q0 -107 54 -171t151 -64h418q78 0 78 -80q0 -84 -78 -84h-430q-160 0 -259.5 104t-99.5 302z" />
<glyph unicode="D" horiz-adv-x="1208" d="M123 84v1200q0 82 86 82h545q164 0 258 -99.5t94 -297.5v-561q0 -195 -101 -301.5t-260 -106.5h-536q-86 0 -86 84zM291 164h422q225 0 225 235v576q0 111 -54 170t-161 59h-432v-1040z" />
<glyph unicode="E" horiz-adv-x="1011" d="M123 84v1200q0 82 86 82h682q78 0 78 -82t-78 -82h-600v-397h512q74 0 74 -82q0 -80 -74 -80h-512v-479h600q78 0 78 -80q0 -84 -78 -84h-682q-86 0 -86 84z" />
<glyph unicode="F" horiz-adv-x="1005" d="M123 70v1214q0 82 86 82h682q78 0 78 -82t-78 -82h-600v-397h512q74 0 74 -82q0 -80 -74 -80h-512v-573q0 -46 -19 -63t-63 -17q-45 0 -65.5 18.5t-20.5 61.5z" />
<glyph unicode="G" horiz-adv-x="1136" d="M102 408v550q0 98 30.5 177.5t82 129t115 75.5t133.5 26h455q77 0 77 -82t-77 -82h-429q-104 0 -161.5 -63.5t-57.5 -173.5v-566q0 -111 54 -173t161 -62h392v477h-211q-76 0 -76 84q0 80 76 80h295q45 0 64 -16t19 -64v-641q0 -43 -18.5 -63.5t-60.5 -20.5h-502 q-159 0 -260 106.5t-101 301.5z" />
<glyph unicode="H" horiz-adv-x="1159" d="M119 72v1222q0 44 19.5 63t64.5 19t63.5 -18t18.5 -64v-491h589v491q0 46 18.5 64t63.5 18t64.5 -19t19.5 -63v-1222q0 -44 -19.5 -63t-64.5 -19t-63.5 18t-18.5 64v573h-589v-573q0 -46 -18.5 -64t-63.5 -18t-64.5 19t-19.5 63z" />
<glyph unicode="I" horiz-adv-x="507" d="M172 72v1222q0 44 19.5 63t64.5 19q44 0 63 -18t19 -64v-1222q0 -46 -19 -64t-63 -18q-45 0 -64.5 19t-19.5 63z" />
<glyph unicode="J" horiz-adv-x="825" d="M0 84q0 40 22 59t56 19h178q100 0 154.5 53t54.5 156v835h-250q-32 0 -51 20t-19 60t19 61t51 21h334q82 0 82 -82v-913q0 -78 -22 -144t-66 -118t-116.5 -81.5t-166.5 -29.5h-184q-76 0 -76 84z" />
<glyph unicode="K" horiz-adv-x="1069" d="M123 72v1218q0 84 84 84q44 0 63 -19t19 -65v-530h2l600 575q37 37 74 37q26 0 54 -24t28 -58q0 -33 -23 -53l-469 -449l471 -667q18 -21 18 -51t-20 -50q-36 -28 -68 -28q-45 0 -71 39l-39 57q-365 523 -414 592l-143 -139v-469q0 -44 -19.5 -63t-62.5 -19q-84 0 -84 82 z" />
<glyph unicode="L" horiz-adv-x="991" d="M123 84v1210q0 82 86 82q43 0 62.5 -19t19.5 -63v-1130h598q78 0 78 -80q0 -84 -78 -84h-680q-86 0 -86 84z" />
<glyph unicode="M" horiz-adv-x="1341" d="M123 70v1212q0 84 84 84h74q26 0 43 -9t22 -16.5t21 -35.5l305 -646l307 660q14 25 32 36t48 11h74q84 0 84 -84v-1212q0 -44 -19.5 -62t-64.5 -18t-63.5 17t-18.5 63v1026h-4l-256 -549q-15 -31 -35 -48.5t-54 -17.5h-67q-34 0 -53.5 17.5t-36.5 50.5l-252 547h-4v-1026 q0 -46 -19 -63t-63 -17q-45 0 -64.5 18t-19.5 62z" />
<glyph unicode="N" horiz-adv-x="1202" d="M123 70v1212q0 84 84 84h65q23 0 39.5 -9t24 -18t22.5 -32q79 -146 262.5 -488.5t286.5 -531.5h4v1007q0 46 19 64t63 18q86 0 86 -82v-1212q0 -82 -86 -82h-61q-34 0 -50 10.5t-30 38.5l-559 1038h-4v-1017q0 -46 -18.5 -62t-63.5 -16t-64.5 18t-19.5 60z" />
<glyph unicode="O" horiz-adv-x="1142" d="M102 406v546q0 100 30.5 180t83 130.5t120.5 77t145 26.5h181q171 0 274.5 -107t103.5 -307v-538q0 -197 -107 -305.5t-269 -108.5h-185q-77 0 -144.5 25.5t-120 74.5t-82.5 127.5t-30 178.5zM268 395q0 -107 59 -172t162 -65h162q104 0 163.5 66.5t59.5 172.5v572 q0 109 -57.5 174t-165.5 65h-162q-103 0 -162 -66t-59 -173v-574z" />
<glyph unicode="P" horiz-adv-x="1120" d="M123 72v1212q0 82 84 82h438q190 0 297 -108t107 -300q0 -196 -101 -306.5t-295 -110.5h-364v-469q0 -46 -19 -64t-63 -18q-45 0 -64.5 19t-19.5 63zM289 705h379q57 0 99.5 22t66.5 59.5t35.5 80.5t11.5 91q0 123 -60.5 183.5t-154.5 60.5h-377v-497z" />
<glyph unicode="Q" horiz-adv-x="1138" d="M102 406v546q0 100 30.5 180t83 130.5t120.5 77t145 26.5h181q171 0 274.5 -107t103.5 -307v-538q0 -156 -67 -254l108 -111q27 -21 27 -53q0 -26 -27.5 -52t-52.5 -26q-19 0 -53 28t-113 107q-89 -53 -198 -53h-185q-77 0 -144.5 25.5t-120 74.5t-82.5 127.5t-30 178.5z M268 395q0 -107 59 -172t162 -65h162q44 0 94 16l-137 141q-26 29 -26 54q0 26 26 54t54 28t57 -29l133 -139q22 55 22 114v572q0 109 -57.5 174t-165.5 65h-162q-103 0 -162 -66t-59 -173v-574z" />
<glyph unicode="R" horiz-adv-x="1110" d="M127 74v1210q0 82 84 82h432q191 0 298.5 -108t107.5 -300q0 -158 -69.5 -264.5t-207.5 -140.5l236 -434q12 -21 12 -45q0 -35 -25.5 -59.5t-62.5 -24.5q-47 0 -74 47l-270 504h-299v-467q0 -46 -19.5 -65t-64.5 -19q-42 0 -60 19.5t-18 64.5zM289 705h387q70 0 118 38 t67.5 93t19.5 122q0 122 -61 183t-148 61h-383v-497z" />
<glyph unicode="S" horiz-adv-x="1075" d="M86 1022q0 150 90.5 247t249.5 97h426q22 0 44 -22.5t22 -61.5q0 -44 -20 -62t-46 -18h-426q-70 0 -122 -51t-52 -127q0 -69 35 -109t112 -73l265 -111q49 -20 81 -35t74.5 -39t69.5 -50.5t52.5 -61.5t37.5 -80.5t12 -99.5q0 -99 -38.5 -181t-117 -133t-184.5 -51h-467 q-24 0 -43.5 19t-19.5 61t22 63t41 21h463q75 0 124.5 50.5t49.5 139.5q0 71 -43.5 120t-132.5 85l-276 117q-56 24 -90.5 41t-75.5 47t-63.5 62.5t-38 82.5t-15.5 113z" />
<glyph unicode="T" horiz-adv-x="1007" d="M14 1284q0 82 76 82h823q78 0 78 -82t-78 -82h-327v-1130q0 -45 -18.5 -63.5t-65.5 -18.5q-45 0 -63.5 18t-18.5 64v1130h-330q-76 0 -76 82z" />
<glyph unicode="U" horiz-adv-x="1163" d="M111 399v891q0 46 26 64t58 18q29 0 55 -18.5t26 -63.5v-891q0 -98 60.5 -166.5t157.5 -68.5h174q101 0 160 64.5t59 170.5v891q0 82 82 82q30 0 56 -18t26 -64v-882q0 -196 -105.5 -302t-267.5 -106h-195q-78 0 -145 25t-118 73t-80 125.5t-29 175.5z" />
<glyph unicode="V" horiz-adv-x="1126" d="M20 1294q0 47 50 68q30 10 45 10q49 0 67 -53l375 -1114h4q71 215 202.5 605.5t170.5 508.5q10 30 24.5 41.5t38.5 11.5q18 0 45 -10q54 -22 54 -64q0 -15 -6 -30l-408 -1194q-14 -42 -32 -58t-56 -16h-72q-40 0 -58 15.5t-32 58.5l-407 1194q-5 25 -5 26z" />
<glyph unicode="W" horiz-adv-x="1566" d="M16 1298q0 54 50 68q33 10 49 10q51 0 65 -53l289 -1116h2q149 706 203 969q11 43 29 61t55 18h49q40 0 58 -18t26 -61l205 -969h2q48 187 140 558t140 558q15 53 68 53q20 0 41 -6q53 -14 53 -70q0 -21 -4 -28l-317 -1198q-14 -43 -31.5 -58.5t-54.5 -15.5h-74 q-38 0 -57 16t-31 58l-191 907l-186 -907q-14 -42 -32 -58t-56 -16h-74q-38 0 -56 16t-32 58l-324 1198q-4 20 -4 26z" />
<glyph unicode="X" horiz-adv-x="1071" d="M25 72q0 25 16 47l399 590l-364 542q-15 21 -15 45q0 30 27.5 56t61.5 26q41 0 67 -39l324 -499l325 499q26 39 66 39q33 0 60.5 -23t27.5 -57q0 -23 -14 -43l-367 -546l399 -590q13 -20 13 -45q0 -43 -33 -66q-22 -16 -49 -16q-44 0 -70 39l-360 549l-359 -547 q-30 -43 -74 -43q-32 0 -56.5 25t-24.5 57z" />
<glyph unicode="Y" horiz-adv-x="1042" d="M14 1290q0 31 29.5 56.5t67.5 25.5q40 0 61 -41l352 -590h4l342 590q21 41 66 41q41 0 66.5 -26.5t25.5 -53.5q0 -22 -8 -35q-80 -133 -224 -378t-186 -316v-495q0 -43 -19.5 -60.5t-64.5 -17.5q-82 0 -82 78v497l-421 697q-9 15 -9 28z" />
<glyph unicode="Z" horiz-adv-x="1013" d="M49 74q0 44 27 88l663 1040h-587q-78 0 -78 82t78 82h733q36 0 56 -21.5t20 -52.5q0 -39 -29 -88l-662 -1040h627q72 0 72 -80q0 -84 -72 -84h-760q-88 0 -88 74z" />
<glyph unicode="[" horiz-adv-x="610" d="M106 -84v1483q0 36 21 63t70 27h319q24 0 44 -20.5t20 -59.5q0 -37 -20.5 -57.5t-43.5 -20.5h-252v-1347h252q23 0 43.5 -20.5t20.5 -57.5q0 -38 -20.5 -59t-43.5 -21h-319q-49 0 -70 27t-21 63z" />
<glyph unicode="\" horiz-adv-x="960" d="M43 1382q0 27 25 49.5t61 22.5q44 0 64 -35l704 -1399q8 -19 8 -32q0 -36 -26.5 -58t-63.5 -22q-44 4 -61 41l-703 1403q-8 13 -8 30z" />
<glyph unicode="]" horiz-adv-x="628" d="M61 -82q0 37 21.5 56.5t44.5 19.5h252v1327h-252q-23 0 -44.5 20.5t-21.5 57.5q0 38 20 58t46 20h319q49 0 70 -26t21 -62v-1461q0 -36 -21 -63t-70 -27h-319q-26 0 -46 20t-20 60z" />
<glyph unicode="^" horiz-adv-x="878" d="M39 1016q0 30 20 47l330 287q26 20 57 20q30 0 56 -20l313 -285q25 -22 25 -53q0 -34 -28 -59t-60 -25q-27 0 -45 18l-263 234l-272 -236q-19 -16 -45 -16q-38 0 -63 26t-25 62z" />
<glyph unicode="_" horiz-adv-x="1024" d="M-82 -180q0 71 82 71h1024q43 0 61.5 -16.5t18.5 -54.5q0 -41 -17.5 -56.5t-62.5 -15.5h-1024q-82 0 -82 72z" />
<glyph unicode="`" horiz-adv-x="1032" d="M371 1382q0 36 27 63.5t63 27.5q52 0 76 -46l143 -253q14 -20 14 -44q0 -20 -15 -37.5t-42 -17.5q-36 0 -62 29l-186 225q-18 21 -18 53z" />
<glyph unicode="a" horiz-adv-x="1030" d="M78 281v24q0 107 73 186.5t199 79.5h412v35q0 81 -49.5 130.5t-143.5 49.5h-274q-27 0 -46.5 18t-19.5 56q0 40 20 62t46 22h280q173 0 264 -90t91 -260v-504q0 -34 -22 -62t-58 -28h-516q-107 0 -181.5 77.5t-74.5 203.5zM246 287q0 -63 40.5 -94t104.5 -31h371v258 h-369q-62 0 -104.5 -29t-42.5 -90v-14z" />
<glyph unicode="b" horiz-adv-x="1024" d="M98 92v1270q0 25 23.5 45t62.5 20q40 0 61 -19t21 -46v-414h307q164 0 264.5 -93t100.5 -267v-236q0 -167 -105 -259.5t-266 -92.5h-389q-38 0 -59 29t-21 63zM266 164h301q91 0 147 48t56 144v228q0 100 -55 149t-148 49h-301v-618z" />
<glyph unicode="c" horiz-adv-x="845" d="M88 354v232q0 173 101.5 266.5t263.5 93.5h274q23 0 44.5 -23t21.5 -61q0 -40 -20 -61t-46 -21h-268q-91 0 -147 -52.5t-56 -147.5v-220q0 -95 56 -145.5t147 -50.5h278q26 0 46 -21t20 -61q0 -38 -21 -60t-47 -22h-278q-169 0 -269 91t-100 263z" />
<glyph unicode="d" horiz-adv-x="1028" d="M86 350v238q0 173 101.5 266.5t263.5 93.5h307v414q0 26 20.5 45.5t61.5 19.5q40 0 63 -19.5t23 -45.5v-1270q0 -34 -21 -63t-59 -29h-389q-168 0 -269.5 91.5t-101.5 258.5zM254 356q0 -96 56 -144t147 -48h301v618h-301q-93 0 -148 -49t-55 -149v-228z" />
<glyph unicode="e" horiz-adv-x="976" d="M86 352v230q0 169 107 266.5t270 97.5h72q154 0 259 -96.5t105 -267.5v-103q0 -34 -22 -62t-70 -28h-553v-43q0 -87 56.5 -137.5t148.5 -50.5h286q28 0 48 -18.5t20 -57.5q0 -38 -21 -60t-47 -22h-299q-159 0 -259.5 93t-100.5 259zM254 528h477v54q0 99 -56.5 148.5 t-148.5 49.5h-71q-86 0 -143.5 -50.5t-57.5 -147.5v-54z" />
<glyph unicode="f" horiz-adv-x="690" d="M12 870q0 39 19.5 58.5t46.5 19.5h86v123q0 174 94.5 258t261.5 84h123q28 0 50 -21t22 -61q0 -38 -22.5 -60t-49.5 -22h-121q-89 0 -138.5 -38.5t-49.5 -135.5v-127h260q28 0 46.5 -19t18.5 -59q0 -38 -19.5 -57.5t-45.5 -19.5h-262v-738q0 -27 -22.5 -46t-61.5 -19 q-40 0 -62 19t-22 46v738h-86q-26 0 -46 19.5t-20 57.5z" />
<glyph unicode="g" horiz-adv-x="1028" d="M86 358v236q0 167 104.5 259.5t266.5 92.5h387q38 0 61 -28.5t23 -61.5l-2 -922q0 -166 -102.5 -259t-266.5 -93h-301q-26 0 -47 22t-21 60q0 39 21.5 58.5t46.5 19.5h299q92 0 147.5 49t55.5 148v61h-307q-162 0 -263.5 93t-101.5 265zM254 365q0 -100 55 -149.5 t148 -49.5h301v620h-301q-91 0 -147 -50t-56 -146v-225z" />
<glyph unicode="h" horiz-adv-x="1032" d="M102 55v1307q0 26 23 45.5t63 19.5t61 -19.5t21 -45.5v-416h301q172 0 269.5 -91t97.5 -267v-531q0 -27 -21.5 -47t-62.5 -20q-39 0 -61.5 20t-22.5 45v533q0 99 -59.5 146.5t-149.5 47.5h-291v-727q0 -26 -21 -45.5t-61 -19.5q-41 0 -63.5 19t-22.5 46z" />
<glyph unicode="i" horiz-adv-x="626" d="M47 866q0 40 20 60t48 20h256q40 0 62 -21t22 -48v-822q0 -26 -21.5 -45.5t-62.5 -19.5q-42 0 -63 19t-21 46v731h-172q-26 0 -47 21t-21 59zM252 1229q0 45 29.5 72.5t68.5 27.5q45 0 74 -24.5t29 -75.5q0 -41 -29 -70t-72 -29q-41 0 -70.5 29t-29.5 70z" />
<glyph unicode="j" horiz-adv-x="604" d="M-100 -334q0 38 20 57t47 19h103q93 0 147.5 48.5t54.5 148.5v849h-196q-26 0 -46 20t-20 58q0 40 20 60t46 20h282q37 0 58.5 -21t21.5 -59l2 -932q0 -172 -94 -262t-268 -90h-111q-27 0 -47 22.5t-20 61.5zM236 1229q0 48 29 74t69 26q45 0 73.5 -24.5t28.5 -75.5 q0 -42 -28 -70.5t-70 -28.5t-72 29t-30 70z" />
<glyph unicode="k" horiz-adv-x="894" d="M94 55v1307q0 28 22 46.5t62 18.5q42 0 63 -18.5t21 -46.5v-758l436 326q27 18 56 18q32 0 58 -23t26 -57q0 -32 -31 -57l-236 -176l285 -526q10 -17 10 -33q0 -39 -35 -66q-27 -18 -55 -18q-43 0 -67 41l-277 508l-170 -123v-363q0 -28 -21 -46.5t-63 -18.5 q-40 0 -62 17.5t-22 47.5z" />
<glyph unicode="l" horiz-adv-x="561" d="M133 328v1034q0 29 21 48.5t63 19.5q39 0 60.5 -20t21.5 -48v-1034q0 -174 154 -174h30q32 0 51 -20t19 -60t-19.5 -62t-50.5 -22h-34q-316 0 -316 338z" />
<glyph unicode="m" horiz-adv-x="1402" d="M102 55v799q0 34 22.5 63t70.5 29h745q174 0 271.5 -91.5t97.5 -268.5v-531q0 -27 -22 -46t-64 -19q-41 0 -61.5 18.5t-20.5 46.5v531q0 100 -59.5 148t-149.5 48h-150v-727q0 -27 -22 -46t-64 -19q-40 0 -62 18.5t-22 46.5v727h-342v-727q0 -28 -21 -46.5t-63 -18.5 q-39 0 -61.5 19t-22.5 46z" />
<glyph unicode="n" horiz-adv-x="1032" d="M102 55v799q0 34 22.5 63t70.5 29h372q175 0 272 -91.5t97 -268.5v-531q0 -27 -20.5 -46t-61.5 -19q-84 0 -84 65v531q0 100 -60 148t-151 48h-289v-727q0 -28 -20 -46.5t-64 -18.5q-40 0 -62 19t-22 46z" />
<glyph unicode="o" horiz-adv-x="1007" d="M88 354v232q0 171 102.5 265.5t270.5 94.5h92q165 0 266 -93.5t101 -266.5v-232q0 -114 -50.5 -195.5t-131.5 -120t-183 -38.5h-109q-154 0 -256 92t-102 262zM256 352q0 -96 55 -146t146 -50h92q91 0 147 50t56 146v234q0 102 -55.5 153.5t-147.5 51.5h-92 q-91 0 -146 -52t-55 -153v-234z" />
<glyph unicode="p" horiz-adv-x="1017" d="M92 -383v1239q0 34 21 62t59 28h389q170 0 269.5 -91t99.5 -261v-234q0 -172 -101.5 -266t-261.5 -94h-307v-381q0 -65 -82 -65q-86 0 -86 63zM260 162h301q91 0 147 50t56 150v228q0 96 -55.5 146t-147.5 50h-301v-624z" />
<glyph unicode="q" horiz-adv-x="1013" d="M78 360v234q0 169 100.5 260.5t270.5 91.5h389q35 0 56 -28.5t21 -61.5v-1239q0 -30 -21.5 -46.5t-62.5 -16.5q-81 0 -81 65v381h-310q-160 0 -261 93.5t-101 266.5zM246 362q0 -100 55.5 -150t147.5 -50h301v624h-304q-91 0 -145.5 -49.5t-54.5 -146.5v-228z" />
<glyph unicode="r" horiz-adv-x="786" d="M117 53v746q0 37 6 78q5 28 27 48.5t61 20.5h264q122 0 211.5 -70.5t89.5 -144.5q0 -40 -41 -67q-31 -17 -51 -17q-25 0 -47 25q-7 7 -21 25t-22 28q-55 55 -141 55h-168v-727q0 -26 -21 -44.5t-61 -18.5q-41 0 -63.5 18.5t-22.5 44.5z" />
<glyph unicode="s" horiz-adv-x="942" d="M84 692q0 113 71.5 183.5t206.5 70.5h381q23 0 45.5 -20t22.5 -62q0 -43 -21.5 -62.5t-46.5 -19.5h-381q-108 0 -108 -88q0 -33 27.5 -53t87.5 -39l241 -67q60 -18 102 -37.5t78 -50t54 -76t18 -105.5q0 -113 -73 -189.5t-207 -76.5h-420q-25 0 -45.5 19.5t-20.5 64.5 q0 39 24 60.5t42 21.5h420q51 0 81.5 26t30.5 72q0 37 -28.5 61t-90.5 42l-241 71q-59 16 -99 33t-77 45.5t-55.5 72.5t-18.5 103z" />
<glyph unicode="t" horiz-adv-x="739" d="M31 868q0 38 19.5 58t45.5 20h103v291q0 27 21 46.5t61 19.5t63 -19.5t23 -46.5v-291h229q26 0 46 -20t20 -58q0 -39 -19.5 -58t-46.5 -19h-229v-443q0 -100 47.5 -144t138.5 -44h106q27 0 48.5 -21.5t21.5 -60.5q0 -38 -21 -59t-49 -21h-127q-158 0 -244.5 83t-86.5 257 v453h-105q-27 0 -46 19t-19 58z" />
<glyph unicode="u" horiz-adv-x="1030" d="M94 360v533q0 26 21.5 45.5t62.5 19.5q40 0 63 -19.5t23 -45.5v-533q0 -100 59.5 -148t149.5 -48h287v725q0 26 21.5 45.5t62.5 19.5q39 0 61.5 -19t22.5 -46v-797q0 -34 -22 -63t-70 -29h-371q-174 0 -272.5 92t-98.5 268z" />
<glyph unicode="v" horiz-adv-x="903" d="M29 885q0 35 24.5 55.5t63.5 20.5q57 0 78 -58l256 -729h6l252 733q19 54 75 54q37 0 62.5 -20t25.5 -54q0 -14 -6 -29l-280 -784q-27 -74 -94 -74h-82q-68 0 -95 74l-282 784q-4 20 -4 27z" />
<glyph unicode="w" horiz-adv-x="1302" d="M25 885q0 32 26.5 52.5t63.5 20.5q58 0 78 -57q11 -39 102.5 -355t105.5 -366h7l174 518q-5 19 -20 60t-24.5 74t-9.5 55q0 32 24.5 51.5t61.5 19.5q60 0 78 -57q10 -33 111 -353.5t115 -367.5h6q105 408 182 725q6 22 29 37.5t47 15.5q36 0 61 -21.5t25 -53.5 q0 -22 -4 -27q-23 -86 -96 -359t-115 -423q-18 -74 -95 -74h-75q-70 0 -97 74l-129 391h-2q-28 -88 -127 -391q-27 -74 -94 -74h-74q-72 0 -96 74l-233 782q-6 15 -6 29z" />
<glyph unicode="x" horiz-adv-x="903" d="M39 74q0 24 14 41l291 370l-266 349q-15 18 -15 40q0 29 29 60t68 31q30 0 53 -29l240 -322l239 322q21 27 53 27q39 0 68 -29t29 -62q0 -23 -15 -38l-268 -349l295 -370q12 -15 12 -35q0 -29 -27.5 -60.5t-66.5 -31.5t-59 26l-260 342l-260 -342q-22 -28 -60 -28 q-40 0 -67 30t-27 58z" />
<glyph unicode="y" horiz-adv-x="1034" d="M92 360v531q0 28 21 47.5t61 19.5q39 0 62.5 -20t23.5 -47v-531q0 -100 59.5 -148t147.5 -48h293v727q0 27 22 47t62 20q39 0 61.5 -19.5t22.5 -47.5v-954q0 -172 -104 -263.5t-267 -91.5h-301q-26 0 -46 22t-20 62q0 38 20 57t48 19h297q91 0 148 50.5t57 148.5v59h-299 q-166 0 -267.5 93t-101.5 267z" />
<glyph unicode="z" horiz-adv-x="880" d="M51 86q0 29 25 64l522 634h-471q-24 0 -45 20.5t-21 59.5t20 60.5t46 21.5h623q42 0 66 -22.5t24 -63.5q0 -28 -25 -63l-518 -635h473q35 0 52.5 -23.5t17.5 -56.5t-17.5 -57.5t-52.5 -24.5h-639q-37 0 -58.5 22.5t-21.5 63.5z" />
<glyph unicode="{" horiz-adv-x="698" d="M57 649q0 67 49 88q65 29 92 74t27 119v203q0 158 88.5 245.5t243.5 87.5h47q18 0 35.5 -17t17.5 -56q0 -41 -18 -58.5t-35 -17.5h-39q-85 0 -128.5 -48t-43.5 -134l-2 -240q0 -72 -36 -137t-105 -105q71 -34 107 -106t36 -150v-239q0 -87 43.5 -135t128.5 -48h39 q18 0 35.5 -17t17.5 -58q0 -42 -17 -59t-36 -17h-47q-155 0 -243.5 89t-88.5 249v213q0 74 -26 120t-86 70q-33 12 -44.5 26t-11.5 58z" />
<glyph unicode="|" horiz-adv-x="974" d="M397 -160v1676q0 42 19.5 60.5t64.5 18.5t64.5 -17.5t19.5 -61.5v-1676q0 -44 -19.5 -62t-64.5 -18q-44 0 -64 18.5t-20 61.5z" />
<glyph unicode="}" horiz-adv-x="698" d="M39 -100q0 41 17.5 58t35.5 17h39q85 0 128.5 48t43.5 135v239q0 78 36 150t107 106q-69 40 -105 105t-36 137l-2 240q0 86 -43.5 134t-128.5 48h-39q-17 0 -35 17.5t-18 58.5q0 39 17.5 56t35.5 17h47q155 0 243.5 -87.5t88.5 -245.5v-203q0 -74 27 -119t92 -74 q49 -21 49 -88q0 -44 -11 -58t-44 -26q-60 -24 -86.5 -70t-26.5 -120v-213q0 -160 -88.5 -249t-243.5 -89h-47q-19 0 -36 17t-17 59z" />
<glyph unicode="~" d="M49 606q0 37 14 51q87 115 228 115q53 0 112.5 -19.5t103.5 -43t97 -43t94 -19.5q32 0 57.5 13t40 28t36 28t45.5 13q32 0 51.5 -28t19.5 -44q0 -20 -16 -41q-45 -63 -100.5 -88.5t-131.5 -25.5q-123 0 -239 61q-9 4 -38.5 19.5t-45 22.5t-38.5 14.5t-40 7.5 q-67 0 -113 -43q-43 -43 -75 -43q-23 0 -42.5 20.5t-19.5 44.5z" />
<glyph unicode="&#xa0;" horiz-adv-x="1120" d="M35 68q0 18 4 30l401 1190q14 44 32.5 61t57.5 17h60q39 0 57.5 -17t32.5 -61l401 -1190q6 -15 6 -30q0 -47 -53 -68q-21 -6 -41 -6q-58 0 -78 51l-92 266h-530l-90 -266q-18 -53 -72 -53q-19 0 -37 6q-59 14 -59 70zM225 1581q64 121 174 121q54 0 170 -47 q7 -3 29.5 -11.5t31.5 -11.5t22.5 -6.5t23.5 -3.5q38 0 69 39q51 60 95 33q43 -30 43 -58q0 -14 -6 -26q-34 -63 -85.5 -93t-101.5 -30q-46 0 -143 37q-8 3 -33.5 13.5t-37.5 14.5t-30 8.5t-32 4.5q-31 0 -60 -33q-24 -31 -54.5 -37.5t-57.5 18.5q-34 34 -17 68zM350 473 h420l-209 651h-4z" />
<glyph unicode="&#xa1;" d="M61 672q0 40 22.5 60t59.5 20h709q82 0 82 -80l-2 -355q0 -40 -18.5 -59.5t-61.5 -19.5q-76 0 -76 79v277h-635q-80 0 -80 78z" />
<glyph unicode="&#xa2;" d="M31 629q0 38 18 57t41 19h66v253q0 193 106 300.5t254 107.5h338q80 0 80 -82q0 -80 -80 -80h-311q-108 0 -163.5 -63.5t-55.5 -175.5v-260h405q24 0 41.5 -18t17.5 -56q0 -36 -18 -56t-43 -20h-403v-391h571q26 0 46 -20t20 -60q0 -39 -20 -61.5t-46 -22.5h-649 q-49 0 -69.5 28t-20.5 64v463h-66q-23 0 -41 19.5t-18 54.5z" />
<glyph unicode="&#xa3;" horiz-adv-x="968" d="M123 1171q0 118 74.5 195.5t208.5 77.5h348q24 0 46.5 -22t22.5 -60q0 -46 -20.5 -65t-48.5 -19h-346q-49 0 -81 -27.5t-32 -76.5q0 -65 115 -115l161 -68q60 -23 98 -43t77 -51.5t58 -75t19 -100.5v-258q0 -26 -21.5 -47t-62.5 -21q-45 0 -64.5 20t-19.5 48v229 q0 84 -131 142l-155 67q-33 14 -48.5 20.5t-44 20t-42.5 23.5t-35.5 26.5t-32 33.5t-22.5 39t-16.5 49t-4.5 58zM150 -131q0 82 69 82h359q49 0 81.5 28t32.5 76q0 39 -27.5 64.5t-86.5 50.5l-164 63q-41 15 -67 25.5t-58.5 28t-52.5 36.5t-38.5 45t-27 60t-8.5 76v258 q0 27 21.5 48t62.5 21q45 0 64.5 -20.5t19.5 -48.5v-250q0 -40 31.5 -69t99.5 -54l157 -61q46 -18 76 -31.5t65.5 -36.5t56 -49t34.5 -65.5t14 -88.5q0 -116 -75 -193t-209 -77h-361q-24 0 -46.5 22t-22.5 60z" />
<glyph unicode="&#xa5;" horiz-adv-x="1028" d="M98 -365v1256q0 24 21 43.5t61 19.5q42 0 64 -18t22 -45v-535q0 -98 53.5 -145t143.5 -47h299v721q0 26 21.5 45.5t62.5 19.5q39 0 62.5 -19.5t23.5 -45.5v-793q0 -33 -23 -62.5t-71 -29.5h-383q-45 0 -70.5 2.5t-59 16.5t-59.5 42v-426q0 -28 -21 -45.5t-63 -17.5 q-40 0 -62 18t-22 45z" />
<glyph unicode="&#xa7;" horiz-adv-x="524" d="M49 524q0 95 62 153t149 58q86 0 148.5 -58t62.5 -153q0 -91 -60 -150t-151 -59t-151 59t-60 150z" />
<glyph unicode="&#xa8;" d="M61 512q0 84 84 84h191q28 32 78.5 97.5t60.5 78.5h-330q-84 0 -84 84q0 42 19.5 60t64.5 18h457l150 186q47 58 75 58q17 0 39 -19q15 -11 20.5 -24.5t6 -22.5t-9 -26.5t-13.5 -24t-20 -27.5l-80 -100h76q47 0 66.5 -17.5t19.5 -60.5q0 -84 -86 -84h-203l-137 -176h340 q86 0 86 -84q0 -44 -19.5 -62t-66.5 -18h-469l-146 -184q-45 -60 -73 -60q-10 0 -41 17q-29 26 -29 49q0 28 39 74l82 104h-64q-45 0 -64.5 18t-19.5 62z" />
<glyph unicode="&#xa9;" horiz-adv-x="1382" d="M39 1303q0 63 59 63h469q56 0 56 -63q0 -64 -60 -64h-168v-510q0 -55 -65 -55q-64 0 -64 55v510h-168q-59 0 -59 64zM672 729v574q0 8 4 20q9 43 61 43h43q42 0 64 -43l143 -301h4q59 120 146 305q24 39 63 39h29q13 0 33 -4q43 -9 43 -59v-574q0 -2 -1 -4.5t-2 -6.5 t-2 -7q-4 -22 -17.5 -29.5t-41.5 -7.5t-41.5 7.5t-17.5 29.5q-4 32 -4 55v375h-2l-103 -219q-21 -48 -65 -48h-39q-19 0 -32.5 8t-19.5 16.5t-12 23.5l-104 219v-375q0 -31 -6 -55q-4 -22 -17.5 -29.5t-40.5 -7.5q-12 0 -20 4q-45 6 -45 51z" />
<glyph unicode="&#xaa;" horiz-adv-x="688" d="M51 791v137q0 119 74 184.5t194 65.5h56q120 0 192 -65t72 -185v-137q0 -114 -76 -180t-186 -66h-68q-109 0 -183.5 66t-74.5 180zM195 791q0 -55 33.5 -85t86.5 -30h58q53 0 87 30t34 85v135q0 59 -33 90t-88 31h-58q-55 0 -87.5 -31t-32.5 -90v-135z" />
<glyph unicode="&#xab;" horiz-adv-x="933" d="M94 217q0 23 19 45l196 217l-178 193q-37 37 -37 71q0 26 25 50t51 24q34 0 74 -43l225 -239q18 -21 18 -64q0 -26 -18 -47l-246 -270q-24 -17 -41 -17q-34 0 -61 23t-27 57zM428 217q0 24 18 45l197 217l-178 193q-37 37 -37 71q0 26 25 50t51 24q34 0 74 -43l225 -239 q18 -21 18 -64q0 -26 -18 -47l-246 -270q-24 -17 -41 -17q-34 0 -61 23t-27 57z" />
<glyph unicode="&#xac;" horiz-adv-x="1196" d="M55 696q0 50 58 70l153 63q29 11 45 11q48 0 70 -60l244 -682l350 1465q13 65 88 65q32 0 54 -15.5t22 -45.5q0 -13 -2 -19l-414 -1657q-21 -75 -92 -75q-35 0 -55 15t-39 56l-283 770l-86 -34q-29 -11 -45 -11q-25 0 -46.5 20.5t-21.5 63.5z" />
<glyph unicode="&#xad;" horiz-adv-x="700" d="M49 489q0 84 96 84h410q96 0 96 -84q0 -86 -96 -86h-410q-96 0 -96 86z" />
<glyph unicode="&#xae;" horiz-adv-x="1572" d="M104 674q0 139 53.5 266t146 222t227 151.5t288.5 56.5q174 0 327.5 -88.5t248 -246.5t94.5 -345q0 -147 -59 -279.5t-155 -224.5t-220 -146t-252 -54q-154 0 -286 55t-221.5 148.5t-140.5 219t-51 265.5zM238 674q0 -152 68.5 -278t199 -202.5t297.5 -76.5 q105 0 206 43.5t178 118.5t124 183t47 228q0 114 -44.5 216.5t-118.5 175t-173 115t-205 42.5q-127 0 -236 -46t-183.5 -123t-117 -180t-42.5 -216zM496 496v352q0 116 69.5 190t175.5 74h242q64 0 64 -68q0 -67 -64 -67h-229q-59 0 -90 -37.5t-31 -89.5v-356q0 -57 32 -91 t89 -34h235q64 0 64 -66q0 -70 -64 -70h-248q-113 0 -179 70.5t-66 192.5z" />
<glyph unicode="&#xaf;" horiz-adv-x="1030" d="M371 1214q0 86 57 140.5t137 54.5q79 0 136 -54t57 -141t-57 -140.5t-136 -53.5q-82 0 -138 53t-56 141zM473 1214q0 -41 27 -65.5t65 -24.5q37 0 63.5 24.5t26.5 65.5q0 42 -26.5 67.5t-63.5 25.5q-38 0 -65 -25t-27 -68z" />
<glyph unicode="&#xb0;" horiz-adv-x="845" d="M88 354v232q0 167 95.5 259.5t250.5 100.5v86q0 21 17 37t51 16q33 0 50 -15.5t17 -37.5v-86h158q23 0 44.5 -23t21.5 -61q0 -40 -20 -61t-46 -21h-158v-616h168q26 0 46 -21t20 -61q0 -38 -21 -60t-47 -22h-166v-84q0 -22 -17 -37.5t-50 -15.5q-34 0 -51 16t-17 37v84 q-159 6 -252.5 96.5t-93.5 257.5zM256 360q0 -89 48 -138.5t130 -57.5v614q-81 -6 -129.5 -57t-48.5 -141v-220z" />
<glyph unicode="&#xb1;" d="M61 135q0 80 82 80h707q84 0 84 -80q0 -78 -84 -78h-707q-82 0 -82 78zM66 682q0 60 57 80l715 311q15 6 30 6q30 0 50 -19.5t20 -51.5q0 -56 -72 -84l-547 -242l547 -242q38 -17 54 -37.5t16 -50.5q0 -33 -22 -53t-50 -20q-13 0 -28 6l-711 313q-59 21 -59 84z" />
<glyph unicode="&#xb4;" horiz-adv-x="1032" d="M231 1202q0 45 27.5 69.5t65.5 24.5q40 0 68 -24t28 -70q0 -38 -27 -65t-65 -27q-41 0 -69 27.5t-28 64.5zM616 1202q0 45 27.5 69.5t65.5 24.5q40 0 68 -24t28 -70q0 -38 -28 -65t-66 -27q-41 0 -68 27t-27 65z" />
<glyph unicode="&#xb5;" horiz-adv-x="1060" d="M68 449q0 104 35.5 193.5t94 149t133 93t152.5 33.5q181 0 316 -117q-7 225 -123.5 360t-296.5 135q-16 0 -51.5 -1t-53.5 -1q-28 0 -49.5 16t-21.5 58q0 26 14 43.5t41 24.5t52 9.5t61 2.5q156 0 276 -57t193 -158t110 -230.5t37 -283.5q0 -348 -137 -543.5t-358 -195.5 q-187 0 -305.5 123t-118.5 346zM250 453q0 -152 70 -232t176 -80q67 0 123.5 40.5t93.5 107.5t59.5 146.5t28.5 164.5q-131 160 -301 160q-74 0 -132.5 -46.5t-88 -116t-29.5 -144.5z" />
<glyph unicode="&#xb6;" horiz-adv-x="989" d="M82 -33v1071q0 168 105.5 267t273.5 104h39q165 0 274 -100.5t109 -272.5q0 -91 -35 -165t-105 -111q86 -33 121 -106.5t35 -182.5v-123q0 -169 -102.5 -261.5t-255.5 -92.5h-88q-37 0 -55.5 24t-18.5 54q0 31 18 55.5t56 24.5h82q84 0 140 49t56 147v123q0 31 -10 64 q-34 143 -186 143h-46q-27 0 -46 19.5t-19 58.5q0 40 19 57.5t46 17.5h29q84 0 140.5 54.5t56.5 150.5q0 38 -13 64q-17 70 -70.5 107.5t-123.5 37.5h-55q-87 0 -145 -54.5t-58 -158.5v-1065q0 -28 -21 -46.5t-63 -18.5t-63 17.5t-21 47.5z" />
<glyph unicode="&#xb7;" horiz-adv-x="626" d="M37 -162q0 3 1 8.5t1 8.5l65 284q8 31 34 51.5t61 20.5q47 0 75.5 -28t28.5 -66q0 -15 -6 -27l-115 -274q-8 -20 -26.5 -33.5t-42.5 -13.5q-39 0 -57.5 21t-18.5 48zM311 -162q0 3 1 8.5t1 8.5l66 284q8 31 33.5 51.5t60.5 20.5q47 0 74.5 -28t27.5 -66q0 -15 -4 -27 l-116 -274q-19 -47 -68 -47q-39 0 -57.5 21t-18.5 48z" />
<glyph unicode="&#xb8;" horiz-adv-x="1030" d="M184 1331q0 24 17.5 47t46.5 23q40 0 74 -27q171 -139 202 -162l219 181q15 12 37 12q20 0 37 -10q14 -10 22 -16.5t14.5 -18.5t6.5 -27q0 -25 -39 -55l-237 -211q-18 -18 -45 -18h-10h-11t-9.5 0.5t-11 2t-9.5 3.5t-11 5.5t-10 8.5l-266 227q-17 14 -17 35z" />
<glyph unicode="&#xba;" horiz-adv-x="1165" d="M80 82q0 7 4 27q9 55 68 55h100q-75 45 -105 117.5t-30 179.5v495q0 184 105.5 297t273.5 113h180q177 0 278 -111.5t101 -298.5v-493q0 -221 -142 -299h103q71 0 71 -82q0 -5 -4 -25q-9 -57 -67 -57h-268q-40 0 -61 22.5t-21 51.5v57q0 33 10.5 45t50.5 31 q162 70 162 239v521q0 105 -59 171t-158 66h-172q-98 0 -157.5 -66t-59.5 -171v-521q0 -82 38 -144.5t113 -90.5q38 -14 50 -29.5t12 -52.5v-55q0 -9 -7 -23q-11 -51 -75 -51h-262q-72 0 -72 82z" />
<glyph unicode="&#xbb;" horiz-adv-x="1224" d="M76 102q0 51 28 77t72 26q46 0 76.5 -25.5t30.5 -77.5q0 -42 -30 -73t-73 -31q-44 0 -74 30.5t-30 73.5zM510 102q0 51 29 77t73 26q45 0 75 -25.5t30 -77.5q0 -42 -30 -73t-73 -31t-73.5 30.5t-30.5 73.5zM942 102q0 51 28 77t72 26q46 0 76.5 -25.5t30.5 -77.5 q0 -42 -30 -73t-72 -31q-44 0 -74.5 30.5t-30.5 73.5z" />
<glyph unicode="&#xbf;" horiz-adv-x="423" d="M117 868q0 42 26.5 69.5t67.5 27.5t69.5 -28t28.5 -69q0 -46 -28 -71t-68 -27q-39 0 -67.5 25t-28.5 73zM131 -311v817q0 45 19.5 67.5t62.5 22.5q84 0 84 -90v-817q0 -42 -21 -66t-63 -24q-82 0 -82 90z" />
<glyph unicode="&#xc0;" horiz-adv-x="1142" d="M102 406v546q0 100 30.5 180t83 130.5t120.5 77t145 26.5h181q171 0 274.5 -107t103.5 -307v-538q0 -197 -107 -305.5t-269 -108.5h-185q-77 0 -144.5 25.5t-120 74.5t-82.5 127.5t-30 178.5zM248 1548q64 121 174 121q54 0 170 -47q9 -3 30 -11.5t30 -11.5t22.5 -6.5 t23.5 -3.5q39 0 70 39q11 13 19 20.5t20.5 15t26 7t28.5 -9.5q43 -30 43 -57q0 -15 -6 -27q-34 -63 -85.5 -93t-100.5 -30q-47 0 -144 37q-8 3 -33.5 13.5t-37.5 14.5t-30 8.5t-32 4.5q-30 0 -59 -33q-24 -31 -55 -37t-58 19q-33 33 -16 67zM268 395q0 -107 59 -172t162 -65 h162q104 0 163.5 66.5t59.5 172.5v572q0 109 -57.5 174t-165.5 65h-162q-103 0 -162 -66t-59 -173v-574z" />
<glyph unicode="&#xc1;" horiz-adv-x="1011" d="M123 84v1200q0 82 86 82h682q78 0 78 -82t-78 -82h-600v-397h512q74 0 74 -82q0 -80 -74 -80h-512v-479h600q78 0 78 -80q0 -84 -78 -84h-682q-86 0 -86 84zM305 1612q0 40 28 65t60 25q26 0 47 -12l232 -142q43 -26 43 -59q0 -27 -22 -42t-48 -15q-3 0 -31 4l-256 96 q-24 11 -38.5 32.5t-14.5 47.5z" />
<glyph unicode="&#xc2;" horiz-adv-x="1120" d="M35 68q0 18 4 30l401 1190q14 44 32.5 61t57.5 17h60q39 0 57.5 -17t32.5 -61l401 -1190q6 -15 6 -30q0 -47 -53 -68q-21 -6 -41 -6q-58 0 -78 51l-92 266h-530l-90 -266q-18 -53 -72 -53q-19 0 -37 6q-59 14 -59 70zM350 473h420l-209 651h-4zM436 1489q0 35 39 59 l234 142q21 12 47 12q32 0 59 -24t27 -64q0 -59 -54 -82l-256 -96q-20 -4 -28 -4q-26 0 -47 15t-21 42z" />
<glyph unicode="&#xc3;" horiz-adv-x="1622" d="M102 406v546q0 194 108.5 304t268.5 110h1022q76 0 76 -84q0 -80 -76 -80h-602v-399h514q74 0 74 -80q0 -82 -74 -82h-514v-477h602q76 0 76 -82t-76 -82h-1024q-78 0 -145 25.5t-119 74.5t-81.5 127.5t-29.5 178.5zM268 399q0 -107 59 -173t162 -66h242v1044h-242 q-104 0 -162.5 -65.5t-58.5 -173.5v-566z" />
<glyph unicode="&#xc4;" horiz-adv-x="1120" d="M35 68q0 18 4 30l401 1190q14 44 32.5 61t57.5 17h60q39 0 57.5 -17t32.5 -61l401 -1190q6 -15 6 -30q0 -47 -53 -68q-21 -6 -41 -6q-58 0 -78 51l-92 266h-530l-90 -266q-18 -53 -72 -53q-19 0 -37 6q-59 14 -59 70zM274 1536q0 44 27.5 68t65.5 24q40 0 68 -23.5 t28 -68.5q0 -41 -26.5 -67.5t-65.5 -26.5q-41 0 -69 27.5t-28 66.5zM350 473h420l-209 651h-4zM659 1536q0 44 27.5 68t65.5 24q40 0 68 -23.5t28 -68.5q0 -41 -27.5 -67.5t-66.5 -26.5q-41 0 -68 27.5t-27 66.5z" />
<glyph unicode="&#xc5;" horiz-adv-x="1026" d="M102 406v552q0 99 30 178t80.5 128.5t114.5 75.5t136 26h428q78 0 78 -82t-78 -82h-412q-98 0 -154.5 -65t-56.5 -172v-566q0 -107 54 -171t151 -64h418q78 0 78 -80q0 -84 -78 -84h-264l-41 -106h55q74 0 119 -42t45 -114q0 -64 -53 -116t-148 -52q-23 0 -51 4 t-56.5 12.5t-47.5 24t-19 35.5q0 24 15.5 39.5t33.5 15.5q14 0 23 -6q48 -29 102 -29q42 0 64 20t22 48q0 24 -16.5 44.5t-55.5 20.5h-77q-58 0 -58 49q0 16 6 31l48 121h-76q-160 0 -259.5 104t-99.5 302z" />
<glyph unicode="&#xc6;" horiz-adv-x="1142" d="M100 47q0 20 9 29l55 86q-62 95 -62 244v546q0 194 108.5 304t268.5 110h183q141 0 239 -76l41 62q9 18 35 18q25 0 42 -15.5t17 -33.5q0 -12 -10 -29l-53 -82q67 -101 67 -258v-540q0 -99 -30 -178.5t-82 -130t-119.5 -77t-144.5 -26.5h-187q-147 0 -241 78l-41 -64 q-11 -20 -39 -20q-18 0 -35 10q-21 18 -21 43zM268 434q0 -56 8 -100l533 815q-59 59 -158 59h-162q-104 0 -162.5 -66.5t-58.5 -174.5v-533zM330 221q59 -65 159 -65h162q102 0 162.5 67.5t60.5 173.5v570q0 32 -10 77z" />
<glyph unicode="&#xc7;" horiz-adv-x="1011" d="M123 84v1200q0 82 86 82h682q78 0 78 -82t-78 -82h-600v-397h512q74 0 74 -82q0 -80 -74 -80h-512v-479h600q78 0 78 -80q0 -84 -78 -84h-682q-86 0 -86 84zM408 1489q0 36 38 59l234 142q21 12 47 12q32 0 59 -24t27 -64q0 -60 -53 -82l-256 -96q-20 -4 -29 -4 q-26 0 -46.5 15t-20.5 42z" />
<glyph unicode="&#xc8;" horiz-adv-x="507" d="M-86 1503q0 22 16 35l267 213q4 3 7.5 6t7 5t7.5 3.5t6.5 2.5t7 2t6.5 1.5t7.5 0.5h7h7.5h7q26 0 45 -19l238 -197q39 -30 39 -55q0 -15 -7 -26.5t-14 -18t-22 -16.5q-17 -10 -37 -10q-22 0 -37 12l-219 166l-203 -148q-33 -26 -74 -26q-29 0 -46 22.5t-17 46.5zM172 72 v1222q0 44 19.5 63t64.5 19q44 0 63 -18t19 -64v-1222q0 -46 -19 -64t-63 -18q-45 0 -64.5 19t-19.5 63z" />
<glyph unicode="&#xc9;" horiz-adv-x="1202" d="M123 70v1212q0 84 84 84h65q23 0 39.5 -9t24 -18t22.5 -32q79 -146 262.5 -488.5t286.5 -531.5h4v1007q0 46 19 64t63 18q86 0 86 -82v-1212q0 -82 -86 -82h-61q-34 0 -50 10.5t-30 38.5l-559 1038h-4v-1017q0 -46 -18.5 -62t-63.5 -16t-64.5 18t-19.5 60zM281 1548 q64 121 174 121q54 0 170 -47q9 -3 30 -11.5t30 -11.5t22.5 -6.5t23.5 -3.5q39 0 70 39q11 13 19 20.5t20.5 15t26 7t28.5 -9.5q43 -30 43 -57q0 -15 -6 -27q-34 -63 -85.5 -93t-101.5 -30q-46 0 -143 37q-8 3 -33.5 13.5t-37.5 14.5t-30 8.5t-32 4.5q-30 0 -59 -33 q-24 -31 -55 -37t-58 19q-33 33 -16 67z" />
<glyph unicode="&#xca;" horiz-adv-x="1011" d="M123 84v1200q0 82 86 82h682q78 0 78 -82t-78 -82h-600v-397h512q74 0 74 -82q0 -80 -74 -80h-512v-479h600q78 0 78 -80q0 -84 -78 -84h-682q-86 0 -86 84zM256 1536q0 45 27 68.5t65 23.5q40 0 68 -23.5t28 -68.5q0 -41 -26.5 -67.5t-65.5 -26.5q-41 0 -68.5 27.5 t-27.5 66.5zM641 1536q0 45 27 68.5t65 23.5q40 0 68 -23.5t28 -68.5q0 -41 -27.5 -67.5t-66.5 -26.5q-41 0 -67.5 27.5t-26.5 66.5z" />
<glyph unicode="&#xcb;" horiz-adv-x="507" d="M119 1489q0 35 39 59l233 142q21 12 47 12q32 0 59 -24t27 -64q0 -60 -53 -82l-256 -96q-20 -4 -29 -4q-26 0 -46.5 15t-20.5 42zM172 72v1222q0 44 19.5 63t64.5 19q44 0 63 -18t19 -64v-1222q0 -46 -19 -64t-63 -18q-45 0 -64.5 19t-19.5 63z" />
<glyph unicode="&#xcc;" horiz-adv-x="1142" d="M102 406v546q0 100 30.5 180t83 130.5t120.5 77t145 26.5h181q171 0 274.5 -107t103.5 -307v-538q0 -197 -107 -305.5t-269 -108.5h-185q-77 0 -144.5 25.5t-120 74.5t-82.5 127.5t-30 178.5zM233 1503q0 21 17 35l266 213q12 11 26 15.5t20.5 5t25.5 0.5q26 0 45 -19 l237 -197q39 -30 39 -55q0 -15 -7 -26.5t-14 -18t-22 -16.5q-17 -10 -37 -10q-21 0 -36 12l-220 166l-202 -148q-33 -26 -74 -26q-29 0 -46.5 22.5t-17.5 46.5zM268 395q0 -107 59 -172t162 -65h162q104 0 163.5 66.5t59.5 172.5v572q0 109 -57.5 174t-165.5 65h-162 q-103 0 -162 -66t-59 -173v-574z" />
<glyph unicode="&#xcd;" horiz-adv-x="507" d="M-33 1536q0 45 27 68.5t65 23.5q40 0 68.5 -24t28.5 -68q0 -41 -27 -67.5t-66 -26.5q-41 0 -68.5 27.5t-27.5 66.5zM172 72v1222q0 44 19.5 63t64.5 19q44 0 63 -18t19 -64v-1222q0 -46 -19 -64t-63 -18q-45 0 -64.5 19t-19.5 63zM352 1536q0 45 27 68.5t65 23.5 q40 0 68.5 -24t28.5 -68q0 -40 -28 -67t-67 -27q-41 0 -67.5 27.5t-26.5 66.5z" />
<glyph unicode="&#xce;" horiz-adv-x="507" d="M-27 1612q0 40 28 65t60 25q27 0 48 -12l231 -142q43 -26 43 -59q0 -27 -22 -42t-48 -15q-2 0 -30 4l-256 96q-24 11 -39 32.5t-15 47.5zM172 72v1222q0 44 19.5 63t64.5 19q44 0 63 -18t19 -64v-1222q0 -46 -19 -64t-63 -18q-45 0 -64.5 19t-19.5 63z" />
<glyph unicode="&#xcf;" horiz-adv-x="1142" d="M102 406v546q0 100 30.5 180t83 130.5t120.5 77t145 26.5h181q171 0 274.5 -107t103.5 -307v-538q0 -197 -107 -305.5t-269 -108.5h-185q-77 0 -144.5 25.5t-120 74.5t-82.5 127.5t-30 178.5zM268 395q0 -107 59 -172t162 -65h162q104 0 163.5 66.5t59.5 172.5v572 q0 109 -57.5 174t-165.5 65h-162q-103 0 -162 -66t-59 -173v-574zM401 1489q0 35 39 59l234 142q21 12 47 12q32 0 59 -24t27 -64q0 -60 -53 -82l-256 -96q-20 -4 -29 -4q-26 0 -47 15t-21 42z" />
<glyph unicode="&#xd1;" horiz-adv-x="1142" d="M102 406v546q0 100 30.5 180t83 130.5t120.5 77t145 26.5h181q171 0 274.5 -107t103.5 -307v-538q0 -197 -107 -305.5t-269 -108.5h-185q-77 0 -144.5 25.5t-120 74.5t-82.5 127.5t-30 178.5zM268 395q0 -107 59 -172t162 -65h162q104 0 163.5 66.5t59.5 172.5v572 q0 109 -57.5 174t-165.5 65h-162q-103 0 -162 -66t-59 -173v-574zM293 1536q0 45 27 68.5t65 23.5q40 0 68 -23.5t28 -68.5q0 -41 -26.5 -67.5t-65.5 -26.5q-41 0 -68.5 27.5t-27.5 66.5zM678 1536q0 45 27 68.5t65 23.5q40 0 68 -23.5t28 -68.5q0 -41 -27.5 -67.5 t-66.5 -26.5q-41 0 -67.5 27.5t-26.5 66.5z" />
<glyph unicode="&#xd2;" horiz-adv-x="1163" d="M111 399v891q0 46 26 64t58 18q29 0 55 -18.5t26 -63.5v-891q0 -98 60.5 -166.5t157.5 -68.5h174q101 0 160 64.5t59 170.5v891q0 82 82 82q30 0 56 -18t26 -64v-882q0 -196 -105.5 -302t-267.5 -106h-195q-78 0 -145 25t-118 73t-80 125.5t-29 175.5zM354 1612 q0 40 28 65t60 25q26 0 47 -12l232 -142q43 -26 43 -59q0 -27 -22 -42t-48 -15q-2 0 -30 4l-256 96q-24 11 -39 32.5t-15 47.5z" />
<glyph unicode="&#xd3;" horiz-adv-x="1142" d="M102 406v546q0 100 30.5 180t83 130.5t120.5 77t145 26.5h181q171 0 274.5 -107t103.5 -307v-538q0 -197 -107 -305.5t-269 -108.5h-185q-77 0 -144.5 25.5t-120 74.5t-82.5 127.5t-30 178.5zM268 395q0 -107 59 -172t162 -65h162q104 0 163.5 66.5t59.5 172.5v572 q0 109 -57.5 174t-165.5 65h-162q-103 0 -162 -66t-59 -173v-574zM328 1612q0 40 28 65t60 25q26 0 47 -12l231 -142q43 -26 43 -59q0 -27 -21.5 -42t-47.5 -15q-3 0 -31 4l-256 96q-24 11 -38.5 32.5t-14.5 47.5z" />
<glyph unicode="&#xd4;" horiz-adv-x="1163" d="M111 399v891q0 46 26 64t58 18q29 0 55 -18.5t26 -63.5v-891q0 -98 60.5 -166.5t157.5 -68.5h174q101 0 160 64.5t59 170.5v891q0 82 82 82q30 0 56 -18t26 -64v-882q0 -196 -105.5 -302t-267.5 -106h-195q-78 0 -145 25t-118 73t-80 125.5t-29 175.5zM446 1489 q0 35 39 59l234 142q21 12 47 12q32 0 59 -24t27 -64q0 -60 -53 -82l-256 -96q-20 -4 -29 -4q-26 0 -47 15t-21 42z" />
<glyph unicode="&#xd5;" horiz-adv-x="1581" d="M76 354v230q0 173 102 267.5t271 94.5h57q190 0 287 -123q101 123 288 123h66q154 0 259 -96.5t105 -267.5v-103q0 -62 -59 -80q-42 -10 -82 -10q-332 0 -498 -2v-47q4 -92 60.5 -137t144.5 -45h281q28 0 47.5 -18t19.5 -58q0 -38 -20.5 -60t-46.5 -22h-293 q-187 0 -279 117q-92 -117 -278 -117h-74q-154 0 -256 92t-102 262zM242 358q0 -98 54.5 -147t145.5 -49h60q32 0 41 4q77 11 119.5 59.5t42.5 132.5v220q0 102 -55 153t-150 51h-56q-92 0 -147 -51.5t-55 -152.5v-220zM872 528h471v29q0 33 -2 47q-6 89 -61.5 132.5 t-140.5 43.5h-66q-87 0 -144 -50t-57 -148v-54z" />
<glyph unicode="&#xd6;" horiz-adv-x="1163" d="M111 399v891q0 46 26 64t58 18q29 0 55 -18.5t26 -63.5v-891q0 -98 60.5 -166.5t157.5 -68.5h174q101 0 160 64.5t59 170.5v891q0 82 82 82q30 0 56 -18t26 -64v-882q0 -196 -105.5 -302t-267.5 -106h-195q-78 0 -145 25t-118 73t-80 125.5t-29 175.5zM315 1536 q0 44 27.5 68t65.5 24q40 0 68 -23.5t28 -68.5q0 -41 -26.5 -67.5t-65.5 -26.5q-41 0 -69 27.5t-28 66.5zM700 1536q0 44 27.5 68t65.5 24q40 0 68 -23.5t28 -68.5q0 -41 -27.5 -67.5t-66.5 -26.5q-41 0 -68 27.5t-27 66.5z" />
<glyph unicode="&#xd8;" horiz-adv-x="1490" d="M102 569q0 134 88 221t218 87q91 0 168 -50t161 -143l8 -4q1 0 4.5 1.5t6.5 2.5q82 82 171.5 137.5t159.5 55.5q129 0 214 -86.5t85 -221.5q0 -143 -89 -229t-218 -86q-45 0 -82.5 10.5t-74.5 36.5t-61 47.5t-68 65.5q-33 41 -43 41q-7 0 -9 -2q-80 -93 -168 -146 t-165 -53q-129 0 -217.5 86t-88.5 229zM248 569q0 -72 47 -123t113 -51q95 0 237 166q0 8 -2 12q-129 160 -235 160q-62 0 -111 -51t-49 -113zM846 563q0 -4 2 -6q54 -67 117 -113.5t112 -46.5q66 0 115 52t49 120q0 62 -46.5 113t-107.5 51q-56 0 -119.5 -47t-119.5 -117 q-2 -2 -2 -6z" />
<glyph unicode="&#xd9;" horiz-adv-x="929" d="M141 1180q63 120 174 120q54 0 170 -47q86 -32 107 -32q39 0 70 39q50 59 94 32q43 -30 43 -57q0 -15 -6 -27q-34 -63 -85.5 -93t-101.5 -30q-46 0 -143 37q-8 3 -33.5 13.5t-37.5 14.5t-30 8.5t-32 4.5q-31 0 -60 -33q-24 -31 -54.5 -37t-57.5 19q-34 34 -17 68z" />
<glyph unicode="&#xda;" horiz-adv-x="626" d="M47 866q0 40 20 60t48 20h256q40 0 62 -21t22 -48v-822q0 -26 -21.5 -45.5t-62.5 -19.5q-42 0 -63 19t-21 46v731h-172q-26 0 -47 21t-21 59z" />
<glyph unicode="&#xdb;" horiz-adv-x="1003" d="M180 1126q0 21 17 35l266 228q5 5 10 8.5t11 5.5t9.5 3.5t11 2t9.5 0.5h11h10q27 0 45 -18l237 -211q39 -30 39 -56q0 -15 -7 -26.5t-14 -18t-22 -16.5q-17 -10 -37 -10q-22 0 -37 12l-219 180q-49 -37 -203 -162q-33 -26 -73 -26q-29 0 -46.5 22.5t-17.5 46.5z" />
<glyph unicode="&#xdc;" horiz-adv-x="1030" d="M78 281v24q0 107 73 186.5t199 79.5h412v35q0 81 -49.5 130.5t-143.5 49.5h-274q-27 0 -46.5 18t-19.5 56q0 40 20 62t46 22h280q173 0 264 -90t91 -260v-504q0 -34 -22 -62t-58 -28h-516q-107 0 -181.5 77.5t-74.5 203.5zM246 287q0 -63 40.5 -94t104.5 -31h371v258 h-369q-62 0 -104.5 -29t-42.5 -90v-14zM379 1130q0 24 14 44l144 253q24 46 75 46q37 0 63.5 -27.5t26.5 -63.5q0 -32 -18 -53l-186 -225q-26 -29 -62 -29q-27 0 -42 17.5t-15 37.5z" />
<glyph unicode="&#xdf;" horiz-adv-x="1234" d="M98 862q0 119 43.5 222.5t115 172.5t165.5 108.5t194 39.5q118 0 220.5 -47t170 -122t106 -166t38.5 -181q0 -123 -44 -229.5t-115 -177t-160.5 -110.5t-182.5 -40q-127 0 -233 46t-174.5 121t-106 169.5t-37.5 193.5zM193 864q0 -82 31 -159.5t87 -139.5t143 -99.5 t191 -37.5q76 0 150 33t132 90.5t94 145t36 188.5q0 75 -31.5 150t-87 136.5t-139.5 99.5t-181 38q-110 0 -206.5 -54.5t-157.5 -158t-61 -232.5zM408 575v578q0 53 51 53h207q100 0 156.5 -55t56.5 -152q0 -77 -35.5 -129t-98.5 -73l97 -197q6 -12 6 -25q0 -20 -15 -33.5 t-38 -13.5q-27 0 -43 25l-117 235h-125v-213q0 -47 -51 -47t-51 47zM510 887h178q38 0 63 30t25 82t-28.5 79.5t-63.5 27.5h-174v-219z" />
<glyph unicode="&#xe0;" horiz-adv-x="1030" d="M78 281v24q0 107 73 186.5t199 79.5h412v35q0 81 -49.5 130.5t-143.5 49.5h-274q-27 0 -46.5 18t-19.5 56q0 40 20 62t46 22h280q173 0 264 -90t91 -260v-504q0 -34 -22 -62t-58 -28h-516q-107 0 -181.5 77.5t-74.5 203.5zM203 1126q0 22 16 35l266 228q5 5 10 8.5 t11 5.5t9.5 3.5t11 2t9.5 0.5h11h10q27 0 45 -18l238 -211q39 -30 39 -56q0 -15 -7 -26.5t-14 -18t-22 -16.5q-17 -10 -37 -10q-22 0 -37 12l-219 180q-49 -37 -203 -162q-33 -26 -74 -26q-29 0 -46 22.5t-17 46.5zM246 287q0 -63 40.5 -94t104.5 -31h371v258h-369 q-62 0 -104.5 -29t-42.5 -90v-14z" />
<glyph unicode="&#xe1;" horiz-adv-x="1030" d="M78 281v24q0 107 73 186.5t199 79.5h412v35q0 81 -49.5 130.5t-143.5 49.5h-274q-27 0 -46.5 18t-19.5 56q0 40 20 62t46 22h280q173 0 264 -90t91 -260v-504q0 -34 -22 -62t-58 -28h-516q-107 0 -181.5 77.5t-74.5 203.5zM246 287q0 -63 40.5 -94t104.5 -31h371v258 h-369q-62 0 -104.5 -29t-42.5 -90v-14zM334 1382q0 36 27 63.5t63 27.5q52 0 76 -46l143 -253q14 -20 14 -44q0 -20 -15 -37.5t-42 -17.5q-35 0 -61 29l-187 225q-18 21 -18 53z" />
<glyph unicode="&#xe2;" horiz-adv-x="1030" d="M78 281v24q0 107 73 186.5t199 79.5h412v35q0 81 -49.5 130.5t-143.5 49.5h-274q-27 0 -46.5 18t-19.5 56q0 40 20 62t46 22h280q173 0 264 -90t91 -260v-504q0 -34 -22 -62t-58 -28h-516q-107 0 -181.5 77.5t-74.5 203.5zM246 287q0 -63 40.5 -94t104.5 -31h371v258 h-369q-62 0 -104.5 -29t-42.5 -90v-14zM262 1202q0 45 27 69.5t65 24.5q40 0 68.5 -24t28.5 -70q0 -38 -27.5 -65t-65.5 -27q-41 0 -68.5 27.5t-27.5 64.5zM647 1202q0 45 27 69.5t65 24.5q40 0 68.5 -24t28.5 -70q0 -38 -28 -65t-67 -27q-40 0 -67 27t-27 65z" />
<glyph unicode="&#xe3;" horiz-adv-x="1030" d="M78 281v24q0 107 73 186.5t199 79.5h412v35q0 81 -49.5 130.5t-143.5 49.5h-274q-27 0 -46.5 18t-19.5 56q0 40 20 62t46 22h280q173 0 264 -90t91 -260v-504q0 -34 -22 -62t-58 -28h-516q-107 0 -181.5 77.5t-74.5 203.5zM246 287q0 -63 40.5 -94t104.5 -31h371v258 h-369q-62 0 -104.5 -29t-42.5 -90v-14zM326 1214q0 86 57 140.5t137 54.5q79 0 136 -54t57 -141t-57 -140.5t-136 -53.5q-82 0 -138 53t-56 141zM428 1214q0 -41 27 -65.5t65 -24.5q37 0 63.5 24.5t26.5 65.5q0 42 -26.5 67.5t-63.5 25.5q-38 0 -65 -25t-27 -68z" />
<glyph unicode="&#xe4;" horiz-adv-x="1030" d="M78 281v24q0 107 73 186.5t199 79.5h412v35q0 81 -49.5 130.5t-143.5 49.5h-274q-27 0 -46.5 18t-19.5 56q0 40 20 62t46 22h280q173 0 264 -90t91 -260v-504q0 -34 -22 -62t-58 -28h-516q-107 0 -181.5 77.5t-74.5 203.5zM217 1180q63 120 174 120q54 0 170 -47 q86 -32 107 -32q38 0 69 39q50 59 94 32q43 -30 43 -57q0 -15 -6 -27q-34 -63 -85.5 -93t-100.5 -30q-46 0 -143 37q-8 3 -33.5 13.5t-37.5 14.5t-30 8.5t-32 4.5q-31 0 -60 -33q-24 -31 -55 -37t-58 19q-34 34 -16 68zM246 287q0 -63 40.5 -94t104.5 -31h371v258h-369 q-62 0 -104.5 -29t-42.5 -90v-14z" />
<glyph unicode="&#xe5;" horiz-adv-x="845" d="M88 354v232q0 173 101.5 266.5t263.5 93.5h274q23 0 44.5 -23t21.5 -61q0 -40 -20 -61t-46 -21h-268q-91 0 -147 -52.5t-56 -147.5v-220q0 -95 56 -145.5t147 -50.5h278q26 0 46 -21t20 -61q0 -38 -21 -60t-47 -22h-203l-40 -106h55q74 0 119 -42t45 -114q0 -64 -53 -116 t-148 -52q-23 0 -51 4t-56.5 12.5t-47.5 24t-19 35.5q0 24 15.5 39.5t33.5 15.5q14 0 23 -6q48 -29 102 -29q42 0 64 20t22 48q0 24 -16.5 44.5t-55.5 20.5h-78q-57 0 -57 49q0 16 6 31l47 121q-164 5 -259 95t-95 259z" />
<glyph unicode="&#xe6;" horiz-adv-x="1007" d="M88 354v232q0 171 102.5 265.5t270.5 94.5h92q134 0 225 -61l76 98q9 18 35 18q25 0 42 -15.5t17 -33.5q0 -11 -10 -28l-86 -111q68 -89 68 -227v-232q0 -114 -50.5 -195.5t-131.5 -120t-183 -38.5h-109q-110 0 -190 45l-66 -86q-11 -20 -38 -20q-18 0 -35 10 q-21 18 -21 43q0 20 8 28l70 89q-86 92 -86 245zM256 352q0 -61 25 -106l395 508q-49 37 -127 37h-92q-91 0 -146 -52t-55 -153v-234zM356 174q43 -18 101 -18h92q91 0 147 50t56 146v234q0 41 -13 82z" />
<glyph unicode="&#xe7;" horiz-adv-x="976" d="M86 352v230q0 169 107 266.5t270 97.5h72q154 0 259 -96.5t105 -267.5v-103q0 -34 -22 -62t-70 -28h-553v-43q0 -87 56.5 -137.5t148.5 -50.5h286q28 0 48 -18.5t20 -57.5q0 -38 -21 -60t-47 -22h-299q-159 0 -259.5 93t-100.5 259zM254 528h477v54q0 99 -56.5 148.5 t-148.5 49.5h-71q-86 0 -143.5 -50.5t-57.5 -147.5v-54zM412 1130q0 24 14 44l143 253q24 46 76 46q37 0 63.5 -27.5t26.5 -63.5q0 -32 -18 -53l-187 -225q-26 -29 -61 -29q-27 0 -42 17.5t-15 37.5z" />
<glyph unicode="&#xe8;" horiz-adv-x="976" d="M86 352v230q0 169 107 266.5t270 97.5h72q154 0 259 -96.5t105 -267.5v-103q0 -34 -22 -62t-70 -28h-553v-43q0 -87 56.5 -137.5t148.5 -50.5h286q28 0 48 -18.5t20 -57.5q0 -38 -21 -60t-47 -22h-299q-159 0 -259.5 93t-100.5 259zM170 1126q0 22 16 35l267 228 q5 5 10 8.5t11 5.5t9.5 3.5t10.5 2t9 0.5h10.5h10.5q27 0 45 -18l238 -211q39 -30 39 -56q0 -15 -7 -26.5t-14 -18t-22 -16.5q-17 -10 -37 -10q-22 0 -37 12l-219 180q-49 -37 -203 -162q-33 -26 -74 -26q-29 0 -46 22.5t-17 46.5zM254 528h477v54q0 99 -56.5 148.5 t-148.5 49.5h-71q-86 0 -143.5 -50.5t-57.5 -147.5v-54z" />
<glyph unicode="&#xe9;" horiz-adv-x="976" d="M86 352v230q0 169 107 266.5t270 97.5h72q154 0 259 -96.5t105 -267.5v-103q0 -34 -22 -62t-70 -28h-553v-43q0 -87 56.5 -137.5t148.5 -50.5h286q28 0 48 -18.5t20 -57.5q0 -38 -21 -60t-47 -22h-299q-159 0 -259.5 93t-100.5 259zM254 528h477v54q0 99 -56.5 148.5 t-148.5 49.5h-71q-86 0 -143.5 -50.5t-57.5 -147.5v-54zM268 1382q0 36 27 63.5t63 27.5q52 0 76 -46l144 -253q14 -20 14 -44q0 -20 -15 -37.5t-42 -17.5q-36 0 -62 29l-186 225q-19 22 -19 53z" />
<glyph unicode="&#xea;" horiz-adv-x="976" d="M86 352v230q0 169 107 266.5t270 97.5h72q154 0 259 -96.5t105 -267.5v-103q0 -34 -22 -62t-70 -28h-553v-43q0 -87 56.5 -137.5t148.5 -50.5h286q28 0 48 -18.5t20 -57.5q0 -38 -21 -60t-47 -22h-299q-159 0 -259.5 93t-100.5 259zM225 1202q0 45 27 69.5t65 24.5 q40 0 68.5 -24t28.5 -70q0 -38 -27 -65t-65 -27q-41 0 -69 27.5t-28 64.5zM254 528h477v54q0 99 -56.5 148.5t-148.5 49.5h-71q-86 0 -143.5 -50.5t-57.5 -147.5v-54zM610 1202q0 45 27 69.5t65 24.5q40 0 68.5 -24t28.5 -70q0 -38 -28 -65t-66 -27q-41 0 -68 27t-27 65z " />
<glyph unicode="&#xeb;" horiz-adv-x="626" d="M47 866q0 40 20 60t48 20h256q40 0 62 -21t22 -48v-822q0 -26 -21.5 -45.5t-62.5 -19.5q-42 0 -63 19t-21 46v731h-172q-26 0 -47 21t-21 59zM240 1130q0 24 14 44l143 253q24 46 76 46q37 0 63.5 -27.5t26.5 -63.5q0 -32 -18 -53l-187 -225q-26 -29 -61 -29 q-27 0 -42 17.5t-15 37.5z" />
<glyph unicode="&#xec;" horiz-adv-x="655" d="M-10 1126q0 22 16 35l266 228q5 5 10 8.5t11 5.5t9.5 3.5t11 2t9.5 0.5h11h10q27 0 45 -18l238 -211q39 -30 39 -56q0 -15 -7 -26.5t-14 -18t-22 -16.5q-17 -10 -37 -10q-22 0 -37 12l-219 180q-49 -37 -203 -162q-33 -26 -74 -26q-29 0 -46 22.5t-17 46.5zM53 866 q0 40 20 60t48 20h256q40 0 62 -21t22 -48v-822q0 -26 -21.5 -45.5t-62.5 -19.5q-42 0 -63 19t-21 46v731h-172q-26 0 -47 21t-21 59z" />
<glyph unicode="&#xed;" horiz-adv-x="626" d="M47 866q0 40 20 60t48 20h256q40 0 62 -21t22 -48v-822q0 -26 -21.5 -45.5t-62.5 -19.5q-42 0 -63 19t-21 46v731h-172q-26 0 -47 21t-21 59zM102 1382q0 36 27.5 63.5t63.5 27.5q51 0 75 -46l144 -253q14 -20 14 -44q0 -20 -15 -37.5t-42 -17.5q-36 0 -62 29l-186 225 q-19 22 -19 53z" />
<glyph unicode="&#xee;" horiz-adv-x="626" d="M47 866q0 40 20 60t48 20h256q40 0 62 -21t22 -48v-822q0 -26 -21.5 -45.5t-62.5 -19.5q-42 0 -63 19t-21 46v731h-172q-26 0 -47 21t-21 59zM57 1202q0 45 27.5 69.5t65.5 24.5q40 0 68 -24t28 -70q0 -38 -27 -65t-65 -27q-41 0 -69 27.5t-28 64.5zM442 1202 q0 45 27.5 69.5t65.5 24.5q40 0 68 -24t28 -70q0 -38 -28 -65t-66 -27q-41 0 -68 27t-27 65z" />
<glyph unicode="&#xef;" horiz-adv-x="1032" d="M102 55v799q0 34 22.5 63t70.5 29h372q175 0 272 -91.5t97 -268.5v-531q0 -27 -20.5 -46t-61.5 -19q-84 0 -84 65v531q0 100 -60 148t-151 48h-289v-727q0 -28 -20 -46.5t-64 -18.5q-40 0 -62 19t-22 46zM166 1180q63 120 174 120q54 0 170 -47q86 -32 106 -32 q39 0 70 39q50 59 94 32q43 -30 43 -57q0 -15 -6 -27q-34 -63 -85.5 -93t-100.5 -30q-47 0 -144 37q-8 3 -33.5 13.5t-37.5 14.5t-30 8.5t-32 4.5q-30 0 -59 -33q-24 -31 -55 -37t-58 19q-34 34 -16 68z" />
<glyph unicode="&#xf1;" horiz-adv-x="1007" d="M88 354v232q0 171 102.5 265.5t270.5 94.5h92q165 0 266 -93.5t101 -266.5v-232q0 -114 -50.5 -195.5t-131.5 -120t-183 -38.5h-109q-154 0 -256 92t-102 262zM256 352q0 -96 55 -146t146 -50h92q91 0 147 50t56 146v234q0 102 -55.5 153.5t-147.5 51.5h-92 q-91 0 -146 -52t-55 -153v-234zM391 1130q0 23 15 44l143 253q24 46 76 46q37 0 63.5 -27.5t26.5 -63.5q0 -31 -19 -53l-186 -225q-26 -29 -61 -29q-27 0 -42.5 17.5t-15.5 37.5z" />
<glyph unicode="&#xf2;" horiz-adv-x="1007" d="M88 354v232q0 171 102.5 265.5t270.5 94.5h92q165 0 266 -93.5t101 -266.5v-232q0 -114 -50.5 -195.5t-131.5 -120t-183 -38.5h-109q-154 0 -256 92t-102 262zM162 1126q0 22 16 35l266 228q5 5 10 8.5t11 5.5t9.5 3.5t11 2t9.5 0.5h11h10q27 0 45 -18l238 -211 q39 -30 39 -56q0 -15 -7 -26.5t-14 -18t-22 -16.5q-17 -10 -37 -10q-22 0 -37 12l-219 180q-49 -37 -203 -162q-33 -26 -74 -26q-29 0 -46 22.5t-17 46.5zM256 352q0 -96 55 -146t146 -50h92q91 0 147 50t56 146v234q0 102 -55.5 153.5t-147.5 51.5h-92q-91 0 -146 -52 t-55 -153v-234z" />
<glyph unicode="&#xf3;" horiz-adv-x="1007" d="M88 354v232q0 171 102.5 265.5t270.5 94.5h92q165 0 266 -93.5t101 -266.5v-232q0 -114 -50.5 -195.5t-131.5 -120t-183 -38.5h-109q-154 0 -256 92t-102 262zM256 352q0 -96 55 -146t146 -50h92q91 0 147 50t56 146v234q0 102 -55.5 153.5t-147.5 51.5h-92 q-91 0 -146 -52t-55 -153v-234zM291 1382q0 36 27 63.5t63 27.5q52 0 76 -46l143 -253q14 -20 14 -44q0 -20 -15 -37.5t-42 -17.5q-35 0 -61 29l-187 225q-18 21 -18 53z" />
<glyph unicode="&#xf4;" horiz-adv-x="1007" d="M88 354v232q0 171 102.5 265.5t270.5 94.5h92q165 0 266 -93.5t101 -266.5v-232q0 -114 -50.5 -195.5t-131.5 -120t-183 -38.5h-109q-154 0 -256 92t-102 262zM225 1202q0 45 27 69.5t65 24.5q40 0 68.5 -24t28.5 -70q0 -38 -27 -65t-65 -27q-41 0 -69 27.5t-28 64.5z M256 352q0 -96 55 -146t146 -50h92q91 0 147 50t56 146v234q0 102 -55.5 153.5t-147.5 51.5h-92q-91 0 -146 -52t-55 -153v-234zM610 1202q0 45 27 69.5t65 24.5q40 0 68.5 -24t28.5 -70q0 -38 -28 -65t-66 -27q-41 0 -68 27t-27 65z" />
<glyph unicode="&#xf5;" horiz-adv-x="1030" d="M94 360v533q0 26 21.5 45.5t62.5 19.5q40 0 63 -19.5t23 -45.5v-533q0 -100 59.5 -148t149.5 -48h287v725q0 26 21.5 45.5t62.5 19.5q39 0 61.5 -19t22.5 -46v-797q0 -34 -22 -63t-70 -29h-371q-174 0 -272.5 92t-98.5 268zM418 1130q0 24 14 44l143 253q24 46 76 46 q37 0 63.5 -27.5t26.5 -63.5q0 -32 -18 -53l-186 -225q-26 -29 -62 -29q-27 0 -42 17.5t-15 37.5z" />
<glyph unicode="&#xf6;" horiz-adv-x="1007" d="M88 354v232q0 171 102.5 265.5t270.5 94.5h92q165 0 266 -93.5t101 -266.5v-232q0 -114 -50.5 -195.5t-131.5 -120t-183 -38.5h-109q-154 0 -256 92t-102 262zM180 1188q64 121 174 121q54 0 170 -47q7 -3 29.5 -11.5t31.5 -11.5t22.5 -6.5t23.5 -3.5q38 0 69 39 q50 59 95 32q43 -30 43 -57q0 -12 -7 -26q-34 -63 -85.5 -93t-100.5 -30t-143 36q-8 3 -33.5 13.5t-37.5 14.5t-30 8.5t-32 4.5q-32 0 -60 -32q-24 -31 -54.5 -37.5t-57.5 18.5q-34 34 -17 68zM256 352q0 -96 55 -146t146 -50h92q91 0 147 50t56 146v234q0 102 -55.5 153.5 t-147.5 51.5h-92q-91 0 -146 -52t-55 -153v-234z" />
<glyph unicode="&#xf7;" horiz-adv-x="1034" d="M92 360v531q0 28 21 47.5t61 19.5q39 0 62.5 -20t23.5 -47v-531q0 -100 59.5 -148t147.5 -48h293v727q0 27 22 47t62 20q39 0 61.5 -19.5t22.5 -47.5v-954q0 -172 -104 -263.5t-267 -91.5h-301q-26 0 -46 22t-20 62q0 38 20 57t48 19h297q91 0 148 50.5t57 148.5v59h-299 q-166 0 -267.5 93t-101.5 267zM236 1202q0 45 27 69.5t65 24.5q40 0 68 -24t28 -70q0 -38 -27 -65t-65 -27q-41 0 -68.5 27.5t-27.5 64.5zM621 1202q0 45 27 69.5t65 24.5q40 0 68 -24t28 -70q0 -38 -28 -65t-66 -27q-40 0 -67 27t-27 65z" />
<glyph unicode="&#xf8;" horiz-adv-x="892" d="M94 -119q0 47 17.5 96t46.5 84l141 175q47 57 47 133v155q0 29 22 50.5t66 21.5q29 0 54.5 -17.5t25.5 -54.5v-202q0 -60 -47 -125l-158 -207q-37 -46 -37 -99q0 -58 48 -93.5t133 -35.5q57 0 110.5 15.5t90.5 31t53 15.5q30 0 51.5 -26t21.5 -62q0 -39 -30 -60 q-37 -25 -126.5 -51t-183.5 -26q-163 0 -252.5 71t-93.5 211zM338 868q0 42 27.5 70.5t68.5 28.5t68.5 -28.5t27.5 -70.5q0 -45 -28.5 -70.5t-67.5 -25.5t-67.5 25t-28.5 71z" />
<glyph unicode="&#xf9;" horiz-adv-x="1030" d="M94 360v533q0 26 21.5 45.5t62.5 19.5q40 0 63 -19.5t23 -45.5v-533q0 -100 59.5 -148t149.5 -48h287v725q0 26 21.5 45.5t62.5 19.5q39 0 61.5 -19t22.5 -46v-797q0 -34 -22 -63t-70 -29h-371q-174 0 -272.5 92t-98.5 268zM174 1126q0 22 16 35l267 228q5 5 10 8.5 t11 5.5t9.5 3.5t10.5 2t9 0.5h10.5h10.5q27 0 45 -18l238 -211q39 -30 39 -56q0 -15 -7 -26.5t-14 -18t-22 -16.5q-17 -10 -37 -10q-22 0 -37 12l-219 180q-49 -37 -203 -162q-33 -26 -73 -26q-29 0 -46.5 22.5t-17.5 46.5z" />
<glyph unicode="&#xfa;" horiz-adv-x="1030" d="M94 360v533q0 26 21.5 45.5t62.5 19.5q40 0 63 -19.5t23 -45.5v-533q0 -100 59.5 -148t149.5 -48h287v725q0 26 21.5 45.5t62.5 19.5q39 0 61.5 -19t22.5 -46v-797q0 -34 -22 -63t-70 -29h-371q-174 0 -272.5 92t-98.5 268zM272 1382q0 36 27 63.5t63 27.5q52 0 76 -46 l144 -253q14 -20 14 -44q0 -20 -15 -37.5t-42 -17.5q-36 0 -62 29l-186 225q-19 22 -19 53z" />
<glyph unicode="&#xfb;" horiz-adv-x="1030" d="M94 360v533q0 26 21.5 45.5t62.5 19.5q40 0 63 -19.5t23 -45.5v-533q0 -100 59.5 -148t149.5 -48h287v725q0 26 21.5 45.5t62.5 19.5q39 0 61.5 -19t22.5 -46v-797q0 -34 -22 -63t-70 -29h-371q-174 0 -272.5 92t-98.5 268zM231 1202q0 45 27.5 69.5t65.5 24.5 q40 0 68 -24t28 -70q0 -38 -27 -65t-65 -27q-41 0 -69 27.5t-28 64.5zM616 1202q0 45 27.5 69.5t65.5 24.5q40 0 68 -24t28 -70q0 -38 -28 -65t-66 -27q-41 0 -68 27t-27 65z" />
<glyph unicode="&#xfc;" horiz-adv-x="886" d="M82 1010q0 77 76 77h207v269q0 39 18.5 57.5t60.5 18.5t60 -18.5t18 -57.5v-269h207q76 0 76 -77q0 -82 -76 -82h-207v-967q0 -42 -18 -60t-60 -18t-60.5 18.5t-18.5 59.5v967h-207q-76 0 -76 82z" />
<glyph unicode="&#xff;" horiz-adv-x="233" d="M-287 6q0 20 8 33l619 1358q19 37 59 37q31 0 53.5 -18t22.5 -46q0 -14 -6 -29l-616 -1355q-21 -47 -62 -47q-34 0 -56 20t-22 47z" />
<glyph unicode="&#x152;" horiz-adv-x="1005" d="M45 489q0 76 86 76h750q84 0 84 -76q0 -40 -20 -56.5t-64 -16.5h-750q-86 0 -86 73z" />
<glyph unicode="&#x153;" horiz-adv-x="2029" d="M55 489q0 76 88 76h1747q86 0 86 -76q0 -40 -21.5 -56.5t-64.5 -16.5h-1747q-88 0 -88 73z" />
<glyph unicode="&#x178;" d="M29 557q0 36 19 53t48 17h668q63 0 63 -70q0 -35 -17.5 -52.5t-45.5 -17.5h-442v-88q0 -107 53.5 -170t150.5 -63h363q76 0 76 -82q0 -84 -76 -84h-375q-160 0 -259 104t-99 302v81h-60q-33 0 -50 15.5t-17 54.5zM29 811q0 68 67 68h60v79q0 99 29.5 178t80 128.5 t114.5 75.5t136 26h373q76 0 76 -82t-76 -82h-357q-98 0 -154 -65t-56 -172v-86h442q63 0 63 -68q0 -36 -17.5 -54t-45.5 -18h-668q-67 0 -67 72z" />
<glyph unicode="&#x2c6;" horiz-adv-x="1030" d="M201 1313q0 25 21 45t52 20q39 0 56 -28q44 -81 89 -119.5t109 -38.5q114 0 203 156q21 30 55 30q31 0 52.5 -19.5t21.5 -43.5q0 -13 -2 -15q-36 -85 -97 -142t-119 -79t-114 -22q-47 0 -90.5 11.5t-88 37t-83 74.5t-63.5 116q-2 4 -2 17z" />
<glyph unicode="&#x2dc;" horiz-adv-x="1030" d="M440 1217q0 48 30 75t71 27q45 0 75.5 -25.5t30.5 -76.5q0 -43 -29.5 -73t-72.5 -30t-74 30t-31 73z" />
<glyph unicode="&#x2000;" horiz-adv-x="886" />
<glyph unicode="&#x2001;" horiz-adv-x="1772" />
<glyph unicode="&#x2002;" horiz-adv-x="886" />
<glyph unicode="&#x2003;" horiz-adv-x="1772" />
<glyph unicode="&#x2004;" horiz-adv-x="590" />
<glyph unicode="&#x2005;" horiz-adv-x="443" />
<glyph unicode="&#x2006;" horiz-adv-x="295" />
<glyph unicode="&#x2007;" horiz-adv-x="295" />
<glyph unicode="&#x2008;" horiz-adv-x="221" />
<glyph unicode="&#x2009;" horiz-adv-x="354" />
<glyph unicode="&#x200a;" horiz-adv-x="98" />
<glyph unicode="&#x2010;" horiz-adv-x="700" d="M49 489q0 84 96 84h410q96 0 96 -84q0 -86 -96 -86h-410q-96 0 -96 86z" />
<glyph unicode="&#x2011;" horiz-adv-x="700" d="M49 489q0 84 96 84h410q96 0 96 -84q0 -86 -96 -86h-410q-96 0 -96 86z" />
<glyph unicode="&#x2012;" horiz-adv-x="700" d="M49 489q0 84 96 84h410q96 0 96 -84q0 -86 -96 -86h-410q-96 0 -96 86z" />
<glyph unicode="&#x2013;" horiz-adv-x="626" d="M43 1047q0 6 4 26l117 275q8 19 26.5 33t42.5 14q37 0 55.5 -22.5t18.5 -47.5q0 -12 -2 -16l-65 -285q-6 -30 -32.5 -51t-62.5 -21q-45 0 -73.5 29t-28.5 66zM313 1047q0 6 4 26l117 275q8 19 27 33t43 14q37 0 55.5 -22.5t18.5 -47.5q0 -10 -3 -16l-65 -285 q-6 -30 -32 -51t-62 -21q-45 0 -74 29t-29 66z" />
<glyph unicode="&#x2014;" horiz-adv-x="626" d="M39 1024q0 3 1 8t1 8l68 285q5 30 30.5 51t61.5 21q48 0 76 -29t28 -65q0 -15 -6 -27l-115 -275q-8 -20 -27 -33.5t-44 -13.5q-38 0 -56 21.5t-18 48.5zM309 1024q0 3 1 8t1 8l68 285q5 30 30.5 51t61.5 21q48 0 76 -29t28 -65q0 -15 -6 -27l-114 -275q-26 -47 -72 -47 q-38 0 -56 21.5t-18 48.5z" />
<glyph unicode="&#x2018;" d="M61 672q0 80 80 80h711q82 0 82 -80q0 -78 -82 -78h-711q-80 0 -80 78zM389 358q0 52 30.5 81.5t74.5 29.5q48 0 80 -28.5t32 -82.5q0 -47 -30.5 -78.5t-77.5 -31.5q-46 0 -77.5 33t-31.5 77zM389 985q0 51 32.5 81t76.5 30q46 0 77 -28.5t31 -82.5q0 -48 -29.5 -79.5 t-76.5 -31.5q-44 0 -77.5 33.5t-33.5 77.5z" />
<glyph unicode="&#x2019;" horiz-adv-x="827" d="M51 631q-7 11 0 31l287 618q10 23 37 23h80q19 0 25 -4t12 -21l284 -614q5 -14 5.5 -16.5t-3.5 -14.5l-286 -608q-5 -14 -12 -19.5t-25 -5.5h-80q-27 0 -37 23zM210 648q0 -4 5 -15l191 -410q8 -19 18 -2l186 414q7 12 0 29l-186 417q-10 17 -18 -2l-191 -415 q-5 -12 -5 -16z" />
<glyph unicode="&#x201a;" horiz-adv-x="2207" d="M94 799v313q0 122 73.5 189t182.5 67h35q116 0 184 -65t68 -191v-313q0 -123 -71 -189.5t-181 -66.5h-35q-113 0 -184.5 66.5t-71.5 189.5zM233 809q0 -67 31.5 -104t93.5 -37h17q55 0 89 34.5t34 88.5v311q0 139 -123 139h-17q-94 0 -118 -86q-7 -31 -7 -53v-293zM401 6 q0 18 9 33l618 1358q19 37 59 37q31 0 53.5 -18t22.5 -46q0 -14 -6 -29l-616 -1355q-21 -47 -62 -47q-34 0 -56 20t-22 47zM956 254v313q0 123 73.5 189.5t182.5 66.5h35q116 0 184 -65t68 -191v-313q0 -122 -71 -188t-181 -66h-35q-114 0 -185 65.5t-71 188.5zM1096 264 q0 -67 31.5 -104t93.5 -37h16q55 0 89 34.5t34 88.5v311q0 64 -30 101.5t-93 37.5h-16q-95 0 -119 -86q-6 -24 -6 -53v-293zM1571 254v313q0 123 73.5 189.5t182.5 66.5h35q116 0 184 -65t68 -191v-313q0 -122 -71 -188t-181 -66h-35q-114 0 -185 65.5t-71 188.5zM1710 264 q0 -67 31.5 -104t93.5 -37h16q55 0 89 34.5t34 88.5v311q0 64 -30 101.5t-93 37.5h-16q-95 0 -119 -86q-6 -24 -6 -53v-293z" />
<glyph unicode="&#x201c;" horiz-adv-x="339" d="M41 1047q0 6 4 26l115 275q29 47 71 47q37 0 55.5 -22.5t18.5 -47.5q0 -12 -2 -16l-65 -285q-6 -30 -32.5 -51t-62.5 -21q-47 0 -74.5 28.5t-27.5 66.5z" />
<glyph unicode="&#x201d;" horiz-adv-x="339" d="M39 1022q0 14 2 18l65 285q8 31 34 51.5t61 20.5q47 0 74.5 -29.5t27.5 -67.5q0 -12 -4 -24l-117 -275q-19 -47 -71 -47q-35 0 -53.5 20.5t-18.5 47.5z" />
<glyph unicode="&#x201e;" horiz-adv-x="1120" d="M35 68q0 18 4 30l401 1190q14 44 32.5 61t57.5 17h60q39 0 57.5 -17t32.5 -61l401 -1190q6 -15 6 -30q0 -47 -53 -68q-21 -6 -41 -6q-58 0 -78 51l-92 266h-530l-90 -266q-18 -53 -72 -53q-19 0 -37 6q-59 14 -59 70zM211 1503q0 22 16 35l267 213q4 3 7.5 6t7 5t7.5 3.5 t6.5 2.5t7 2t6.5 1.5t7.5 0.5h7h7.5h7q26 0 45 -19l238 -197q39 -30 39 -55q0 -15 -7 -26.5t-14 -18t-22 -16.5q-17 -10 -37 -10q-22 0 -37 12l-219 166l-203 -148q-33 -26 -74 -26q-29 0 -46 22.5t-17 46.5zM350 473h420l-209 651h-4z" />
<glyph unicode="&#x2022;" horiz-adv-x="987" d="M82 1055q0 135 86.5 224t196.5 89h419q47 0 66.5 -19.5t19.5 -66.5v-1237q0 -45 -20 -62.5t-64 -17.5q-43 0 -63.5 15t-20.5 65v1169h-127v-1169q0 -45 -20 -62.5t-61 -17.5q-43 0 -63.5 15t-20.5 65v700h-52q-106 0 -191 85t-85 225z" />
<glyph unicode="&#x2026;" horiz-adv-x="1120" d="M35 68q0 18 4 30l401 1190q14 44 32.5 61t57.5 17h60q39 0 57.5 -17t32.5 -61l401 -1190q6 -15 6 -30q0 -47 -53 -68q-21 -6 -41 -6q-58 0 -78 51l-92 266h-530l-90 -266q-18 -53 -72 -53q-19 0 -37 6q-59 14 -59 70zM276 1612q0 40 28.5 65t60.5 25q26 0 47 -12 l231 -142q43 -26 43 -59q0 -27 -22 -42t-48 -15q-2 0 -30 4l-256 96q-24 11 -39 32.5t-15 47.5zM350 473h420l-209 651h-4z" />
<glyph unicode="&#x202f;" horiz-adv-x="354" />
<glyph unicode="&#x2039;" horiz-adv-x="1064" d="M12 870q0 39 19.5 58.5t46.5 19.5h86v123q0 174 94.5 258t261.5 84h273q29 0 51 -21t22 -61q0 -38 -22.5 -60t-50.5 -22h-271q-89 0 -138.5 -38.5t-49.5 -135.5v-127h526q82 0 82 -80l2 -813q0 -26 -22 -45.5t-62 -19.5q-42 0 -63 19t-21 46v738h-444v-738 q0 -27 -22.5 -46t-61.5 -19q-40 0 -62 19t-22 46v738h-86q-26 0 -46 19.5t-20 57.5z" />
<glyph unicode="&#x203a;" horiz-adv-x="1212" d="M12 870q0 39 19.5 58.5t46.5 19.5h86v117q0 174 94.5 258t261.5 84h271q27 27 69 27q39 0 61.5 -19.5t22.5 -46.5v-1040q0 -174 152 -174h30q32 0 51 -20t19 -60t-19.5 -62t-50.5 -22h-34q-316 0 -316 338v915h-254q-89 0 -138.5 -38.5t-49.5 -135.5v-121h266 q27 0 46.5 -19.5t19.5 -58.5q0 -38 -20 -57.5t-46 -19.5h-268v-738q0 -27 -22.5 -46t-61.5 -19q-40 0 -62 19t-22 46v738h-86q-26 0 -46 19.5t-20 57.5z" />
<glyph unicode="&#x205f;" horiz-adv-x="443" />
<glyph unicode="&#x20ac;" horiz-adv-x="577" d="M92 217q0 23 19 45l196 217l-178 193q-37 37 -37 71q0 26 25 50t51 24q34 0 74 -43l225 -239q18 -18 18 -64q0 -26 -18 -47l-246 -270q-17 -17 -41 -17q-34 0 -61 23t-27 57z" />
<glyph unicode="&#x2122;" horiz-adv-x="1032" d="M379 1130q0 24 14 44l144 253q24 46 75 46q37 0 63.5 -27.5t26.5 -63.5q0 -32 -18 -53l-186 -225q-26 -29 -62 -29q-27 0 -42 17.5t-15 37.5z" />
<glyph unicode="&#x25fc;" horiz-adv-x="962" d="M0 0v963h963v-963h-963z" />
<glyph unicode="&#xfb01;" horiz-adv-x="886" d="M82 547q0 78 76 78h207v303h-207q-76 0 -76 82q0 77 76 77h207v269q0 39 18.5 57.5t60.5 18.5t60 -18.5t18 -57.5v-269h207q76 0 76 -77q0 -82 -76 -82h-207v-303h207q76 0 76 -78q0 -43 -17.5 -61.5t-58.5 -18.5h-207v-506q0 -42 -18 -60t-60 -18t-60.5 18.5t-18.5 59.5 v506h-207q-76 0 -76 80z" />
<glyph unicode="&#xfb02;" horiz-adv-x="358" d="M70 498q0 51 30.5 78.5t75.5 29.5q45 0 78 -28t33 -80q0 -44 -31.5 -76.5t-77.5 -32.5t-77 32.5t-31 76.5z" />
</font>
</defs>
</svg>
